<?xml version="1.0" encoding="UTF-8" standalone="no"?>
<!DOCTYPE svg PUBLIC "-//W3C//DTD SVG 1.1//EN" "http://www.w3.org/Graphics/SVG/1.1/DTD/svg11.dtd">
<!-- Created with Vectornator (http://vectornator.io/) -->
<svg height="100%" stroke-miterlimit="10" style="fill-rule:nonzero;clip-rule:evenodd;stroke-linecap:round;stroke-linejoin:round;" version="1.1" viewBox="0 0 100 100" width="100%" xml:space="preserve" xmlns="http://www.w3.org/2000/svg" xmlns:vectornator="http://vectornator.io" xmlns:xlink="http://www.w3.org/1999/xlink">
<defs/>
<clipPath id="ArtboardFrame">
<rect height="100" width="100" x="0" y="0"/>
</clipPath>
<g clip-path="url(#ArtboardFrame)" id="Layer-1" vectornator:layerName="Layer 1" visibility="hidden">
<g opacity="1">
<path d="M49.9062 0.0625C49.6331 0.112422 49.4501 0.383138 49.5 0.65625C50.8292 7.92697 49.1897 15.2476 49.4688 22.5625C49.6928 28.4354 50.4224 34.2379 50.25 40.125C50.0763 46.0574 49.226 51.9652 49.1875 57.9062C49.1434 64.7222 49.7828 71.5285 49.7812 78.3438C49.7801 83.1682 49.3567 87.9573 49.3438 92.7812C49.3373 95.2057 49.5017 97.616 49.6875 100.031C49.71 100.324 49.9576 100.554 50.25 100.531C50.5424 100.509 50.7725 100.23 50.75 99.9375C50.5658 97.5503 50.4004 95.2089 50.4062 92.8125C50.418 87.9877 50.8125 83.169 50.8125 78.3438C50.8125 71.5303 50.1814 64.7203 50.2188 57.9062C50.2512 51.9735 51.1135 46.0807 51.2812 40.1562C51.4486 34.2459 50.7284 28.3959 50.5 22.5C50.2147 15.1331 51.8074 7.79313 50.4688 0.46875C50.4188 0.195638 50.1794 0.0125776 49.9062 0.0625Z" fill="#ebd9d6" stroke="none"/>
</g>
<g opacity="1">
<path d="M85.8438 48.9375C83.8373 48.9686 81.8497 49.2359 79.8438 49.2812C78.0041 49.3228 76.1803 49.046 74.3438 49.0312C72.4779 49.0163 70.6166 49.1161 68.75 49.125C65.5601 49.1403 62.3774 49.0796 59.1875 49.0938C53.1125 49.1207 47.0453 49.486 40.9688 49.5312C34.8793 49.5766 28.8043 49.2439 22.7188 49.1562C18.3932 49.094 14.0714 49.181 9.75 49.375C6.62138 49.5154 3.50466 49.7606 0.375 49.5312C0.0981043 49.511-0.135973 49.7231-0.15625 50C-0.176527 50.2769 0.0356043 50.511 0.3125 50.5312C4.01033 50.8018 7.70919 50.455 11.4062 50.3125C15.1756 50.1673 18.9469 50.1002 22.7188 50.1562C28.8116 50.2467 34.872 50.6018 40.9688 50.5625C47.0442 50.5233 53.1136 50.1771 59.1875 50.1562C62.9108 50.1434 66.6519 50.248 70.375 50.1875C71.7033 50.1659 73.0151 50.0513 74.3438 50.0625C76.1912 50.0781 78.0239 50.3848 79.875 50.3438C81.8785 50.2993 83.8712 50.0307 85.875 50C88.1143 49.9657 90.3628 50.2079 92.5938 50.375C95.0641 50.56 97.5231 50.6755 100 50.7188C100.293 50.7238 100.557 50.4807 100.562 50.1875C100.568 49.8943 100.324 49.6613 100.031 49.6562C97.2217 49.6078 94.4269 49.4244 91.625 49.2188C89.7104 49.0782 87.7652 48.9077 85.8438 48.9375Z" fill="#ebd9d6" stroke="none"/>
</g>
<g opacity="1">
<path d="M74.875 0.125C74.6017 0.174141 74.4196 0.445496 74.4688 0.71875C75.8337 8.30623 73.8051 15.9377 74.0625 23.5625C74.2099 27.9284 74.8168 32.2841 74.8125 36.6562C74.8091 40.1663 74.4527 43.6532 74.2812 47.1562C74.0357 52.1714 74.0261 57.2301 73.9062 62.25C73.7293 69.6616 74.3568 77.0384 74.6562 84.4375C74.8787 89.933 74.6068 95.4175 75.0625 100.906C75.0868 101.198 75.3328 101.399 75.625 101.375C75.9172 101.351 76.1493 101.105 76.125 100.812C75.6693 95.3392 75.9417 89.8866 75.7188 84.4062C75.4187 77.0297 74.7676 69.6391 74.9375 62.25C75.0527 57.2385 75.0724 52.2256 75.3125 47.2188C75.4813 43.6991 75.8439 40.1827 75.8438 36.6562C75.8435 32.2722 75.2128 27.9089 75.0625 23.5312C74.7989 15.8527 76.843 8.17498 75.4688 0.53125C75.4196 0.257996 75.1483 0.0758585 74.875 0.125Z" fill="#ebd9d6" stroke="none"/>
</g>
<g opacity="1">
<path d="M25.0938-0.1875C24.8161-0.18878 24.595 0.0348658 24.5938 0.3125C24.5548 8.66056 24.1075 17.0266 24.25 25.375C24.2912 27.7894 24.4422 30.1798 24.5 32.5938C24.5715 35.5804 24.491 38.5758 24.5625 41.5625C24.6221 44.0514 24.9134 46.5438 24.9688 49.0312C25.0218 51.4164 24.6928 53.772 24.625 56.1562C24.5241 59.7034 24.6239 63.2651 24.5625 66.8125C24.4954 70.6887 24.2218 74.5591 24.2188 78.4375C24.2161 81.7716 24.4385 85.1084 24.5938 88.4375C24.7712 92.2433 24.8726 96.0346 24.9375 99.8438C24.9425 100.137 25.2068 100.38 25.5 100.375C25.7932 100.37 26.005 100.106 26 99.8125C25.934 95.9929 25.8351 92.1912 25.6562 88.375C25.501 85.0627 25.2794 81.7549 25.2812 78.4375C25.2834 74.565 25.5609 70.7142 25.625 66.8438C25.6837 63.3001 25.5591 59.7309 25.6562 56.1875C25.7221 53.7853 26.0551 51.4032 26 49C25.943 46.5118 25.6558 44.0208 25.5938 41.5312C25.5193 38.5447 25.5744 35.5803 25.5 32.5938C25.4399 30.1823 25.3235 27.7557 25.2812 25.3438C25.1351 17.0028 25.5558 8.65314 25.5938 0.3125C25.595 0.0348658 25.3714-0.18622 25.0938-0.1875Z" fill="#ebd9d6" stroke="none"/>
</g>
<g opacity="1">
<path d="M47.75 74.4062C38.0125 74.4037 28.2599 75.0795 18.5312 75.4375C14.7976 75.5749 10.9695 75.7846 7.25 75.3438C4.73258 75.0454 2.29949 74.4279-0.25 74.5938C-0.527045 74.6119-0.736869 74.848-0.71875 75.125C-0.700631 75.402-0.464545 75.6119-0.1875 75.5938C2.78235 75.3985 5.67636 76.2755 8.625 76.4688C12.2987 76.7095 16.0131 76.5526 19.6875 76.4062C26.894 76.1193 34.0705 75.7626 41.2812 75.5938C43.433 75.5434 45.5977 75.4348 47.75 75.4375C52.451 75.4434 57.1742 75.7794 61.875 75.8125C64.4148 75.8304 66.928 75.5155 69.4688 75.5C73.3091 75.4766 77.1314 75.8359 80.9688 75.9062C85.1034 75.982 89.2417 75.6829 93.375 75.6562C95.7206 75.6411 98.0361 75.7813 100.375 75.9375C100.668 75.957 100.918 75.7301 100.938 75.4375C100.957 75.1449 100.73 74.8945 100.438 74.875C98.0728 74.7177 95.7464 74.6091 93.375 74.625C89.2505 74.6526 85.1258 74.9184 81 74.8438C77.1539 74.7742 73.3179 74.4113 69.4688 74.4375C66.9327 74.4548 64.41 74.7663 61.875 74.75C57.1722 74.7198 52.453 74.4075 47.75 74.4062Z" fill="#ebd9d6" stroke="none"/>
</g>
<g opacity="1">
<path d="M92.7188 24.375C88.1406 24.3884 83.5785 24.7736 79 24.7812C70.0875 24.7961 61.1626 24.4445 52.25 24.4688C45.8099 24.4863 39.3768 24.8208 32.9375 24.875C28.6366 24.9112 24.3603 24.7535 20.0625 24.625C15.8647 24.4995 11.6371 24.5128 7.4375 24.5625C5.00821 24.5912 2.59855 24.8821 0.1875 24.4688C-0.0861573 24.4219-0.328159 24.6326-0.375 24.9062C-0.421841 25.1799-0.242407 25.4219 0.03125 25.4688C2.50671 25.8918 4.97446 25.5915 7.46875 25.5625C12.0754 25.509 16.6769 25.5477 21.2812 25.6875C25.1734 25.8056 29.0737 25.9351 32.9688 25.9062C39.406 25.8585 45.8119 25.5111 52.25 25.5C61.1625 25.4847 70.0876 25.8254 79 25.8125C83.579 25.8059 88.1402 25.4498 92.7188 25.4375C94.9915 25.4314 97.2359 25.5755 99.5 25.75C99.7924 25.7725 100.04 25.5424 100.062 25.25C100.085 24.9576 99.8862 24.71 99.5938 24.6875C97.3016 24.5113 95.0196 24.3683 92.7188 24.375Z" fill="#ebd9d6" stroke="none"/>
</g>
<g opacity="1">
<path d="M50.5312 48.4062C50.0065 48.1642 49.6491 48.4431 49.375 48.8125C48.8526 49.0751 48.6953 49.7947 49.0625 50.25C49.0665 50.2549 49.0584 50.2764 49.0625 50.2812C49.0643 50.2914 49.0606 50.3024 49.0625 50.3125C49.0644 50.3226 49.0604 50.3337 49.0625 50.3438C49.0722 50.4151 49.0409 50.4958 49.0625 50.5625C49.0658 50.572 49.0589 50.5843 49.0625 50.5938C49.0694 50.6149 49.117 50.6044 49.125 50.625C49.1303 50.6387 49.1504 50.6428 49.1562 50.6562C49.255 50.8818 49.4177 51.0031 49.625 51.125C49.6814 51.1551 49.6839 51.2286 49.75 51.25C49.7733 51.2575 49.7895 51.2439 49.8125 51.25C49.8758 51.2689 49.8979 51.3368 49.9688 51.3438C50.2283 51.369 50.3705 51.2536 50.5312 51.1562C50.6199 51.1197 50.7032 51.1187 50.7812 51.0625C51.0202 50.8904 51.2015 50.6582 51.3125 50.375C51.3494 50.2808 51.3242 50.1921 51.3438 50.0938C51.3471 50.0837 51.3406 50.0727 51.3438 50.0625C51.3897 49.8701 51.4658 49.6926 51.4375 49.5C51.433 49.424 51.5209 49.3538 51.5 49.2812C51.3929 48.9087 51.0992 48.6583 50.75 48.5625C50.7284 48.5531 50.709 48.57 50.6875 48.5625C50.6768 48.5587 50.667 48.5658 50.6562 48.5625C50.6422 48.5534 50.6397 48.5401 50.625 48.5312C50.5731 48.5 50.5906 48.4336 50.5312 48.4062Z" fill="#ebd9d6" stroke="none"/>
</g>
<g opacity="1">
<path d="M49.7188 63.125C49.6654 63.1276 49.6435 63.1787 49.5938 63.1875C49.4444 63.234 49.3217 63.2923 49.2188 63.4062C48.2307 64.0529 48.3299 66.1141 49.75 65.9375C49.8177 65.9291 49.844 65.8345 49.9062 65.8125C49.9136 65.8164 49.9301 65.8088 49.9375 65.8125C50.3013 65.997 50.6886 66.0486 51.0938 65.5938C51.4186 65.229 51.3419 65.2354 51 65.1875C51.1933 64.9572 51.4088 64.7179 51.4062 64.4375C51.4046 64.2546 51.2184 64.174 51.125 64.0312C51.0998 63.8279 50.9625 63.686 50.7812 63.5312C50.6618 63.4293 50.6045 63.3078 50.4062 63.25C50.3684 63.239 50.3495 63.2882 50.3125 63.2812C50.3047 63.2753 50.2895 63.2868 50.2812 63.2812C50.2161 63.2416 50.2036 63.1493 50.125 63.125C50.0182 63.0919 49.9397 63.1555 49.8438 63.1562C49.8001 63.1547 49.7587 63.1231 49.7188 63.125Z" fill="#ebd9d6" stroke="none"/>
</g>
<g opacity="1">
<path d="M51.0625 77.9375C50.4663 77.8232 50.0594 78.2565 49.8438 78.7812C49.7917 78.8378 49.7225 78.8695 49.6875 78.9375C49.5019 78.8777 49.4436 78.8488 49.2188 79.0312C48.3696 79.7202 49.3995 81.0461 50.25 81.0312C50.4185 81.0283 50.4404 80.87 50.5625 80.8125C50.5716 80.8136 50.5845 80.8116 50.5938 80.8125C50.8133 80.8329 50.975 80.6637 51.1562 80.5312C51.3176 80.5534 51.4671 80.6894 51.5938 80.625C51.8888 80.4749 51.7959 80.3926 51.5312 80.125C52.0088 79.3422 52.0883 78.1342 51.0625 77.9375Z" fill="#ebd9d6" stroke="none"/>
</g>
<g opacity="1">
<path d="M49.5625 93.3125C49.0752 93.4382 48.9258 93.8924 48.9375 94.375C48.9386 94.4195 48.9018 94.4551 48.9062 94.5C48.8045 94.8172 48.5759 95.1434 48.6875 95.375C48.7857 95.5788 49.0481 95.8094 49.25 95.9062C49.6338 96.0903 49.9536 95.9664 50.2188 95.75C51.2807 95.5863 51.7701 93.7055 50.4062 93.375C50.3088 93.3514 50.2722 93.4088 50.1875 93.4062C50.1778 93.4021 50.1661 93.4101 50.1562 93.4062C50.1052 93.3864 50.0551 93.3869 50 93.375C49.8951 93.3658 49.7897 93.3085 49.6875 93.3438C49.6443 93.3479 49.6023 93.3022 49.5625 93.3125Z" fill="#ebd9d6" stroke="none"/>
</g>
<g opacity="1">
<path d="M25.7188 93.75C25.6169 93.7454 25.5371 93.8268 25.4375 93.8438C25.2182 93.881 24.9814 93.8852 24.8125 94.0312C24.6484 94.114 24.5639 94.2438 24.4688 94.4062C24.4637 94.4157 24.4388 94.4332 24.4375 94.4375C24.4345 94.4473 24.4402 94.4589 24.4375 94.4688C24.3725 94.602 24.2492 94.6916 24.25 94.875C24.2517 95.2506 24.4322 95.4968 24.6875 95.6562C25.094 96.3052 25.9825 96.4022 26.4688 95.8438C26.7506 95.6939 26.9853 95.468 27 95.0625C27.0298 94.2436 26.371 93.7791 25.7188 93.75Z" fill="#ebd9d6" stroke="none"/>
</g>
<g opacity="1">
<path d="M4.84375 93.9688C4.70739 93.9518 4.55382 93.9974 4.4375 94.0625C3.38097 94.654 3.26751 96.4911 4.8125 96.4062C5.16563 96.3868 5.57893 96.283 5.84375 96.0312C6.06833 95.8178 6.17545 95.486 6.15625 95.1562C6.15835 95.1475 6.15442 95.1338 6.15625 95.125C6.20997 94.8677 6.17166 94.6019 5.9375 94.375C5.75957 94.2026 5.4287 94.1241 5.1875 94.125C5.16149 94.1251 5.15036 94.1546 5.125 94.1562C5.12249 94.0777 5.15148 94.007 4.84375 93.9688Z" fill="#ebd9d6" stroke="none"/>
</g>
<g opacity="1">
<path d="M20.1562 78.75C20.1129 78.7619 20.0736 78.7962 20.0312 78.8125C19.7968 78.8348 19.6331 79.0096 19.4688 79.1875C19.4042 79.2573 19.2946 79.2451 19.25 79.3438C19.2084 79.4359 19.2583 79.5064 19.25 79.5938C19.2146 79.6334 19.2147 79.6737 19.1875 79.7188C19.1554 79.783 19.168 79.8377 19.1562 79.9062C19.1096 80.0579 19.0306 80.1862 19.0938 80.375C19.5375 81.7025 21.0066 81.155 21.2812 80.25C21.3399 80.1116 21.2739 79.951 21.25 79.7812C21.2486 79.7712 21.2518 79.7602 21.25 79.75C21.2477 79.7396 21.2527 79.7292 21.25 79.7188C21.2531 79.7064 21.2793 79.6998 21.2812 79.6875C21.2939 79.6096 21.3398 79.5436 21.3125 79.4688C21.3101 79.4621 21.3152 79.4441 21.3125 79.4375C21.2003 78.7961 20.6647 78.6109 20.1562 78.75Z" fill="#ebd9d6" stroke="none"/>
</g>
<g opacity="1">
<path d="M20.4375 63.2812C20.3399 63.289 20.3341 63.3843 20.25 63.4062C20.24 63.4088 20.2285 63.4035 20.2188 63.4062C20.0831 63.4024 19.963 63.4581 19.8438 63.5312C19.7836 63.5771 19.7048 63.5994 19.6562 63.6562C19.6396 63.6749 19.6091 63.6668 19.5938 63.6875C19.5739 63.7142 19.6104 63.7531 19.5938 63.7812C19.5882 63.7906 19.599 63.803 19.5938 63.8125C19.5434 63.8823 19.502 63.921 19.4688 64C19.4436 64.0481 19.4533 64.1052 19.4375 64.1562C19.4319 64.1768 19.4422 64.1979 19.4375 64.2188C19.4144 64.321 19.3752 64.3947 19.375 64.5C19.375 64.5103 19.3748 64.521 19.375 64.5312C19.3155 64.577 19.0821 64.7317 19 64.875C18.8515 65.1341 18.9616 65.4439 19.2188 65.5938C19.3217 65.6538 19.4954 65.5572 19.7188 65.5312C19.7113 65.5399 19.7262 65.5539 19.7188 65.5625C19.7032 65.5804 19.7616 65.5445 19.7812 65.5312C20.0938 65.8464 20.4972 66.0468 21.0625 65.75C21.2525 65.6502 21.2892 65.5006 21.4062 65.375C21.8716 64.8757 21.8599 64.2883 21.4688 63.875C21.3731 63.7086 21.2305 63.6319 21.0625 63.5312C21.0043 63.4963 20.9417 63.4613 20.875 63.4375C20.7721 63.3911 20.7229 63.29 20.5938 63.2812C20.5547 63.2786 20.5373 63.3119 20.5 63.3125C20.4726 63.3131 20.4658 63.279 20.4375 63.2812Z" fill="#ebd9d6" stroke="none"/>
</g>
<g opacity="1">
<path d="M94.875 78.5938C94.7757 78.6391 94.7394 78.7685 94.6562 78.8438C94.5499 78.8817 94.4569 78.8967 94.375 78.9688C93.631 79.378 93.5273 80.884 94.2812 81.2812C94.6716 81.4869 95.0398 81.3878 95.375 81.1562C95.3846 81.1541 95.3968 81.1588 95.4062 81.1562C96.4708 81.0337 97.0784 79.4119 95.9062 78.6875C95.5285 78.4541 95.1596 78.4637 94.875 78.5938Z" fill="#ebd9d6" stroke="none"/>
</g>
<g opacity="1">
<path d="M80.4062 63.7188C80.272 63.7161 80.2389 63.8913 80.125 63.9375C79.1854 63.8021 78.5721 64.8444 78.9688 65.5625C79.0275 65.7657 79.2164 65.8747 79.4688 65.9375C79.5517 66.0684 79.6167 66.2075 79.7812 66.2812C80.7038 66.6948 81.0868 65.8887 81 65.125C81.0244 64.9968 81.1024 64.8858 81.0625 64.75C81.053 64.7178 81.0121 64.7162 81 64.6875C80.9942 64.5891 81.052 64.5013 81.0312 64.4062C80.9706 64.1286 80.7155 63.7249 80.4062 63.7188Z" fill="#ebd9d6" stroke="none"/>
</g>
<g opacity="1">
<path d="M5.0625 18.6562C4.9132 18.6727 4.86061 18.7814 4.75 18.8438C4.70684 18.8522 4.66857 18.8293 4.625 18.8438C4.49718 18.8862 4.43585 18.9976 4.34375 19.0938C4.33632 19.1062 4.31944 19.1122 4.3125 19.125C4.25089 19.1959 4.16552 19.229 4.125 19.3125C4.00609 19.5575 4.01334 19.58 4.21875 19.7188C4.20661 19.9509 4.26403 20.1489 4.34375 20.375C4.304 20.585 4.21471 20.8004 4.28125 21C4.35938 21.2344 4.4924 21.3679 4.6875 21.5C4.87167 21.6247 5.09197 21.6886 5.3125 21.6562C5.69144 21.6006 5.95922 21.3358 6.125 21C6.19976 20.91 6.23907 20.8007 6.28125 20.6875C6.29401 20.6458 6.3052 20.6062 6.3125 20.5625C6.43418 20.1003 6.36992 19.5627 6.0625 19.2188C5.85546 18.8518 5.55445 18.602 5.0625 18.6562Z" fill="#ebd9d6" stroke="none"/>
</g>
<g opacity="1">
<path d="M50.4375 18.5938C50.1366 18.6054 49.9537 18.8307 49.75 19.0938C49.5369 19.1516 49.3969 19.2773 49.2812 19.4688C48.9082 19.1198 48.7696 18.9841 48.625 19.8438C48.4747 20.7373 49.3263 21.1838 50.0938 21.125C50.7016 21.2746 51.3795 21.0132 51.4688 20.0625C51.4876 19.862 51.4716 19.5517 51.4062 19.375C51.3437 19.2061 51.284 19.0332 51.1562 18.9062C50.9255 18.677 50.6646 18.5849 50.4375 18.5938Z" fill="#ebd9d6" stroke="none"/>
</g>
<g opacity="1">
<path d="M20.3438 34.0312C20.078 34.0676 19.958 34.2236 19.7812 34.3438C19.5582 34.0447 19.4728 33.8703 19.3125 34.5312C19.2856 34.6424 19.3231 34.7592 19.3125 34.875C19.0142 35.6586 19.388 36.6844 20.5 36.6875C21.7481 36.691 22.1807 35.0826 21.3438 34.3125C21.2926 34.2655 21.2797 34.1963 21.2188 34.1562C20.9517 33.9809 20.6645 33.9595 20.4062 34.0312C20.3931 34.0325 20.3884 34.0297 20.375 34.0312C20.3616 34.0328 20.3574 34.0294 20.3438 34.0312Z" fill="#ebd9d6" stroke="none"/>
</g>
<g opacity="1">
<path d="M20.5938 48.375C20.13 48.2684 19.7408 48.4669 19.4375 48.75C19.4008 48.7769 19.3815 48.7481 19.3438 48.7812C19.2691 48.8467 19.3024 48.9294 19.25 49C19.0943 49.2153 18.9978 49.411 18.9688 49.6562C18.9708 49.7014 18.9613 49.7366 18.9688 49.7812C18.9665 49.9803 18.984 50.1513 19.0938 50.3125C19.3297 50.8563 19.8954 51.1521 20.375 50.9062C20.6492 50.8788 20.9181 50.7872 21.125 50.4688C21.5655 49.7908 21.3104 49.3337 20.875 49.0625C20.9189 48.7707 20.9034 48.4462 20.5938 48.375Z" fill="#ebd9d6" stroke="none"/>
</g>
<g opacity="1">
<path d="M49.9375 33.5C49.8272 33.5615 49.8016 33.7141 49.7188 33.8125C49.5794 33.978 49.4268 34.1166 49.375 34.3438C49.0765 34.9559 49.0524 35.7845 49.5938 36.1562C49.9686 36.4137 50.3255 36.3834 50.625 36.2188C50.5988 36.1964 50.7118 36.2318 50.6562 36.1875C50.736 36.1394 50.7745 36.0366 50.8438 35.9688C50.8637 35.9602 50.8869 35.9474 50.9062 35.9375C50.99 35.8946 51.0225 35.7844 51.0938 35.7188C51.131 35.6592 51.1885 35.6271 51.2188 35.5625C51.2925 35.4682 51.3877 35.4259 51.4375 35.3125C51.7925 34.7477 51.7558 33.8647 50.9688 33.5C50.5584 33.3099 50.2087 33.3489 49.9375 33.5Z" fill="#ebd9d6" stroke="none"/>
</g>
<g opacity="1">
<path d="M50.2188 3.96875C49.8492 3.99276 49.4772 4.19033 49.25 4.46875C48.7309 5.10491 49.0845 5.86598 49.6562 6.25C50.1644 6.77556 50.9722 6.96814 51.4375 6.125C51.7059 5.63867 51.4829 5.09359 51.0938 4.71875C51.0854 4.66355 51.1448 4.67066 51.0938 4.53125C50.9382 4.1067 50.5883 3.94474 50.2188 3.96875Z" fill="#ebd9d6" stroke="none"/>
</g>
<g opacity="1">
<path d="M94.5938 3.625C94.4239 3.61692 94.3509 3.73717 94.2188 3.78125C94.1493 3.78818 94.1032 3.73005 94.0312 3.75C93.9084 3.78409 93.9054 3.91055 93.8125 3.96875C93.7378 4.04058 93.6454 4.06483 93.5938 4.15625C93.1387 4.67741 93.284 5.44825 93.7812 6.03125C94.145 6.45778 94.6019 6.79441 95.1875 6.5625C95.3668 6.49149 95.3895 6.33207 95.5 6.21875C95.6155 6.14276 95.7446 6.16308 95.8438 6.03125C96.4033 5.28718 95.885 4.37247 95.1562 4.0625C95.1391 4.04747 95.1427 4.01421 95.125 4C95.4156 3.70197 95.4658 3.66645 94.5938 3.625Z" fill="#ebd9d6" stroke="none"/>
</g>
<g opacity="1">
<path d="M80.1875 33.7812C79.8079 33.8177 79.586 34.1798 79.4062 34.5625C79.367 34.6184 79.2763 34.6227 79.25 34.6875C79.2025 34.8043 79.2578 34.9338 79.25 35.0625C79.249 35.0797 79.2191 35.076 79.2188 35.0938C79.2183 35.1141 79.2177 35.136 79.2188 35.1562C79.2243 35.2028 79.1433 35.2361 79.1562 35.2812C79.1702 35.3298 79.2025 35.3306 79.2188 35.375C79.2426 35.4837 79.3175 35.5336 79.375 35.625C79.38 35.6337 79.3699 35.6476 79.375 35.6562C79.4587 35.7966 79.6092 35.9777 79.75 36.0625C79.7732 36.0765 79.7897 36.0505 79.8125 36.0625C80.0293 36.1702 80.2351 36.1739 80.4688 36.125C80.5083 36.112 80.5572 36.1135 80.5938 36.0938C81.3311 35.8608 81.9284 35.0617 81.2188 34.3438C81.1391 34.2632 81.0078 34.2994 80.9062 34.25C80.8592 34.1725 80.8477 34.061 80.7812 34C80.5838 33.8187 80.3956 33.7613 80.1875 33.7812Z" fill="#ebd9d6" stroke="none"/>
</g>
<g opacity="1">
<path d="M79.5625 18.625C79.1927 18.7555 78.9899 19.145 78.875 19.5625C78.8319 19.6727 78.7949 19.7556 78.7812 19.875C78.7775 19.968 78.7959 20.0344 78.8125 20.125C78.8157 20.1425 78.8085 20.1701 78.8125 20.1875C78.811 20.2077 78.8124 20.23 78.8125 20.25C78.7928 20.2541 78.7698 20.2462 78.75 20.25C78.6944 20.2701 78.7222 20.4387 78.7812 20.4375C78.7913 20.4373 78.8025 20.4379 78.8125 20.4375C78.8501 20.5548 78.9271 20.6188 79 20.7188C79.0106 20.7329 79.0272 20.7779 79.0312 20.7812C79.0484 20.7953 79.0756 20.769 79.0938 20.7812C79.2234 20.9246 79.3112 21.0946 79.5312 21.1562C79.9452 21.2723 80.3453 21.0777 80.625 20.7812C81.1609 20.3827 81.2764 19.654 80.5625 19.1562C80.491 19.027 80.5759 18.8489 80.4375 18.75C80.2561 18.6204 80.078 18.6954 79.9062 18.6875C79.8717 18.6841 79.882 18.623 79.8438 18.625C79.8288 18.6258 79.8271 18.6544 79.8125 18.6562C79.7332 18.6615 79.6365 18.5989 79.5625 18.625Z" fill="#ebd9d6" stroke="none"/>
</g>
<g opacity="1">
<path d="M79.7188 48.7812C79.6918 48.7886 79.6828 48.8343 79.6562 48.8438C79.3265 48.8923 79.1132 49.055 79 49.3125C78.5351 49.9021 78.3922 50.8013 79.2188 51.25C80.4241 51.9044 80.996 50.8894 80.9062 49.9688C80.9277 49.8351 80.8683 49.725 80.8438 49.5938C80.8032 49.4801 80.7869 49.3776 80.7188 49.2812C80.6753 49.2077 80.691 49.1286 80.625 49.0625C80.3626 48.7995 80.094 48.7653 79.8125 48.8125C79.7798 48.818 79.751 48.7725 79.7188 48.7812Z" fill="#ebd9d6" stroke="none"/>
</g>
<g opacity="1">
<path d="M22.75 89.3438C20.1664 89.3096 17.5134 89.2663 14.9375 89.5C13.5904 89.6222 12.2583 89.9294 10.9062 90C8.19356 90.1417 5.54828 89.9707 2.84375 89.7812C1.90119 89.7152 0.939218 89.7827 0 89.6562C-0.137586 89.6378-0.26279 89.7374-0.28125 89.875C-0.29971 90.0126-0.200086 90.1378-0.0625 90.1562C0.888159 90.2834 1.85905 90.2142 2.8125 90.2812C5.53728 90.4729 8.20448 90.6434 10.9375 90.5C12.2962 90.4287 13.6464 90.1227 15 90C17.5584 89.7681 20.1528 89.8405 22.7188 89.875C27.3004 89.9366 31.8852 90.1266 36.4688 90.125C44.4548 90.1223 52.4515 89.8394 60.4375 89.9688C63.8622 90.0242 67.2929 90.2432 70.7188 90.2188C73.3768 90.1998 76.029 90.089 78.6875 90.125C81.2273 90.1594 83.7389 90.3016 86.2812 90.25C90.4244 90.166 94.573 89.8255 98.7188 89.9375C99.8957 89.9693 101.074 90.0586 102.25 90.125C102.396 90.1333 102.523 90.0214 102.531 89.875C102.54 89.7286 102.428 89.602 102.281 89.5938C101.1 89.5272 99.9322 89.4381 98.75 89.4062C94.5957 89.2945 90.4328 89.634 86.2812 89.7188C83.7449 89.7705 81.2214 89.6278 78.6875 89.5938C76.0253 89.558 73.3492 89.6988 70.6875 89.7188C66.6945 89.7487 62.7118 89.4464 58.7188 89.4375C51.2998 89.421 43.8874 89.6189 36.4688 89.625C31.8875 89.6288 27.3293 89.4044 22.75 89.3438Z" fill="#ebd9d6" stroke="none"/>
</g>
<g opacity="1">
<path d="M22.9375 84.5312C15.138 84.5091 7.3306 84.9852-0.46875 85.0312C-0.607566 85.0321-0.719566 85.1424-0.71875 85.2812C-0.717934 85.4201-0.607566 85.5321-0.46875 85.5312C7.32908 85.4857 15.1395 85.0074 22.9375 85.0312C26.936 85.0435 30.9405 85.2261 34.9375 85.3125C42.2819 85.4713 49.6228 85.5414 56.9688 85.4375C64.7195 85.3278 72.4659 84.9972 80.2188 85.0625C83.4606 85.0898 86.6958 85.2739 89.9375 85.3125C93.7284 85.3576 97.4897 84.9482 101.281 85.2188C101.428 85.2292 101.552 85.115 101.562 84.9688C101.573 84.8225 101.459 84.6979 101.312 84.6875C97.51 84.4166 93.7391 84.8263 89.9375 84.7812C86.6952 84.7429 83.4612 84.5582 80.2188 84.5312C72.4619 84.4668 64.7234 84.824 56.9688 84.9375C49.1416 85.0521 41.2939 84.9794 33.4688 84.7812C29.9577 84.6923 26.4502 84.5412 22.9375 84.5312Z" fill="#ebd9d6" stroke="none"/>
</g>
<g opacity="1">
<path d="M25.875 79.3438C23.1374 79.3398 20.3943 79.6403 17.6562 79.6875C14.3396 79.7447 11.0344 79.63 7.71875 79.75C4.96505 79.8497 2.22154 80.4943-0.5 79.8125C-0.63467 79.7788-0.778817 79.8653-0.8125 80C-0.846183 80.1347-0.75967 80.2788-0.625 80.3125C2.15065 81.0057 4.91 80.3513 7.71875 80.25C11.0313 80.1306 14.3427 80.244 17.6562 80.1875C20.8051 80.1339 23.975 79.7725 27.125 79.875C32.4133 80.047 37.6806 79.8894 42.9688 80C45.5197 80.0534 48.0736 80.1772 50.625 80.2188C53.615 80.2674 56.6045 80.2839 59.5938 80.375C63.4452 80.4924 67.3021 80.6636 71.1562 80.6562C76.3152 80.6463 81.4432 80.177 86.5938 80C91.6192 79.8273 96.6301 80.0544 101.656 80.0938C101.803 80.0949 101.936 79.9904 101.938 79.8438C101.939 79.6971 101.834 79.5636 101.688 79.5625C96.6539 79.5237 91.5955 79.2951 86.5625 79.4688C81.4177 79.6462 76.3095 80.1132 71.1562 80.125C66.5568 80.1355 61.941 79.8747 57.3438 79.7812C54.3553 79.7205 51.3942 79.7457 48.4062 79.6562C46.6032 79.6023 44.7723 79.5056 42.9688 79.4688C39.2663 79.3931 35.5777 79.4926 31.875 79.4688C29.8728 79.4559 27.8763 79.3466 25.875 79.3438Z" fill="#ebd9d6" stroke="none"/>
</g>
<g opacity="1">
<path d="M42 74.3438C38.6914 74.2915 35.3991 74.4365 32.0938 74.5625C27.2861 74.7458 22.465 74.6248 17.6562 74.6875C14.5192 74.7284 11.3873 74.8984 8.25 74.9062C6.28221 74.9112 4.3436 75.1944 2.375 75.1562C1.58394 75.1409 0.753914 75.0996 0.03125 74.75C-0.0938193 74.6898-0.252265 74.7499-0.3125 74.875C-0.372735 75.0001-0.312569 75.1585-0.1875 75.2188C1.06685 75.8205 2.62415 75.7003 3.96875 75.625C5.7992 75.5226 7.60428 75.3995 9.4375 75.4062C12.187 75.4164 14.9381 75.2228 17.6875 75.1875C23.1626 75.1173 28.6192 75.1606 34.0938 74.9688C36.7315 74.8763 39.3602 74.8322 42 74.875C45.0115 74.9238 48.0169 75.2804 51.0312 75.3438C55.684 75.4415 60.3158 75.3462 64.9688 75.3438C68.4395 75.3419 71.9058 75.4736 75.375 75.5312C81.0627 75.6257 86.7526 75.2454 92.4375 75.1562C95.6842 75.1053 98.9136 75.2013 102.156 75.3438C102.303 75.3502 102.431 75.2402 102.438 75.0938C102.444 74.9473 102.334 74.8502 102.188 74.8438C98.9344 74.7012 95.6947 74.5735 92.4375 74.625C86.7583 74.7147 81.0571 75.0925 75.375 75C71.9028 74.9434 68.4425 74.8094 64.9688 74.8125C60.3195 74.8166 55.6803 74.9392 51.0312 74.8438C48.0161 74.7819 45.0124 74.3914 42 74.3438Z" fill="#ebd9d6" stroke="none"/>
</g>
<g opacity="1">
<path d="M18.7812 69.4375C15.1003 69.3608 11.3615 69.3502 7.6875 69.625C5.18968 69.8118 2.73136 70.5063 0.21875 70.1562C0.0812531 70.1371-0.0433899 70.2375-0.0625 70.375C-0.0816101 70.5125 0.0187531 70.6371 0.15625 70.6562C2.7101 71.0104 5.2112 70.3144 7.75 70.125C11.4082 69.8522 15.085 69.8603 18.75 69.9375C21.6456 69.9985 24.5126 70.3945 27.4062 70.4688C30.1336 70.5387 32.8661 70.454 35.5938 70.4688C39.7618 70.4913 43.925 70.675 48.0938 70.6562C51.6374 70.6403 55.1747 70.4906 58.7188 70.5C64.1152 70.5143 69.5097 70.7128 74.9062 70.7188C79.0168 70.7233 83.1415 70.4656 87.25 70.375C89.7212 70.3205 92.1857 70.4206 94.6562 70.4375C96.7292 70.4516 98.7755 70.3794 100.844 70.5625C100.99 70.5754 101.112 70.4586 101.125 70.3125C101.138 70.1664 101.021 70.0442 100.875 70.0312C98.7922 69.8474 96.7436 69.9203 94.6562 69.9062C92.1806 69.8896 89.6951 69.7888 87.2188 69.8438C83.1144 69.9348 79.0128 70.1908 74.9062 70.1875C69.51 70.1832 64.1149 69.9803 58.7188 69.9688C55.1734 69.9611 51.6387 70.1073 48.0938 70.125C43.9267 70.1458 39.7601 69.9892 35.5938 69.9688C32.8696 69.9554 30.1614 70.038 27.4375 69.9688C24.5432 69.8952 21.6777 69.4978 18.7812 69.4375Z" fill="#ebd9d6" stroke="none"/>
</g>
<g opacity="1">
<path d="M6.21875 64.3438C4.06571 64.3253 1.93398 64.6853-0.21875 64.7188C-0.357552 64.7209-0.470909 64.8299-0.46875 64.9688C-0.466591 65.1076-0.357552 65.2209-0.21875 65.2188C1.9298 65.1853 4.0701 64.8254 6.21875 64.8438C8.26714 64.8613 10.3366 65.1604 12.375 65.3438C16.227 65.6902 20.0989 66.0046 23.9688 66.0312C28.0707 66.0595 32.1512 65.8244 36.25 65.6875C42.856 65.4668 49.5145 65.2709 56.125 65.3125C61.7678 65.348 67.3899 65.6737 73.0312 65.7812C78.8279 65.8918 84.6143 65.3821 90.4062 65.2812C93.7095 65.2237 96.9888 65.3919 100.281 65.625C100.428 65.6353 100.552 65.5213 100.562 65.375C100.573 65.2287 100.459 65.1041 100.312 65.0938C97.0046 64.8599 93.725 64.6918 90.4062 64.75C84.6207 64.8514 78.8527 65.3583 73.0625 65.25C67.4189 65.1445 61.7701 64.814 56.125 64.7812C48.9048 64.7394 41.6523 65.0054 34.4375 65.25C30.9457 65.3684 27.4634 65.5545 23.9688 65.5312C20.1129 65.5056 16.2443 65.1886 12.4062 64.8438C10.3541 64.6594 8.28098 64.3614 6.21875 64.3438Z" fill="#ebd9d6" stroke="none"/>
</g>
<g opacity="1">
<path d="M44.1875 59.1562C37.5376 59.1002 30.9228 59.6859 24.2812 59.9062C20.4035 60.0349 16.5323 59.5202 12.6562 59.5625C8.17417 59.6115 3.73566 60.1498-0.75 59.8125C-0.888428 59.8021-1.02084 59.9241-1.03125 60.0625C-1.04166 60.2009-0.919678 60.3021-0.78125 60.3125C3.71935 60.6509 8.1594 60.1111 12.6562 60.0625C16.5361 60.0206 20.3995 60.5341 24.2812 60.4062C30.9156 60.1878 37.5449 59.6282 44.1875 59.6875C47.2807 59.7151 50.3753 59.9003 53.4688 59.9375C57.5999 59.9872 61.7442 59.9136 65.875 60C70.4923 60.0965 75.0993 60.3451 79.7188 60.375C83.448 60.3992 87.1487 60.2233 90.875 60.1562C94.053 60.099 97.1945 60.4163 100.375 60.1875C100.521 60.177 100.636 60.0525 100.625 59.9062C100.614 59.76 100.49 59.6457 100.344 59.6562C97.1732 59.8852 94.0434 59.5677 90.875 59.625C87.153 59.6923 83.4437 59.8674 79.7188 59.8438C75.1019 59.8144 70.4898 59.5635 65.875 59.4688C61.7426 59.3839 57.6015 59.4539 53.4688 59.4062C50.3748 59.3706 47.2813 59.1824 44.1875 59.1562Z" fill="#ebd9d6" stroke="none"/>
</g>
<g opacity="1">
<path d="M11.8125 54.1875C7.7669 54.2747 3.70004 54.4907-0.34375 54.9062C-0.481842 54.9204-0.576686 55.0494-0.5625 55.1875C-0.548314 55.3256-0.419342 55.4204-0.28125 55.4062C15.8768 53.7468 32.0614 55.3202 48.25 55.3438C55.1022 55.3537 61.9286 54.9208 68.7812 55C70.6151 55.0212 72.4829 55.0618 74.3125 55.1875C76.6735 55.3497 79.0051 55.6422 81.375 55.6562C85.9163 55.6832 90.4583 55.3425 95 55.375C97.2586 55.3911 99.5003 55.5687 101.75 55.75C101.896 55.7618 102.019 55.6462 102.031 55.5C102.043 55.3538 101.927 55.2305 101.781 55.2188C99.5186 55.0367 97.2716 54.8597 95 54.8438C90.4581 54.8118 85.9166 55.1511 81.375 55.125C79.0163 55.1115 76.6937 54.8481 74.3438 54.6875C72.5042 54.5618 70.6563 54.5206 68.8125 54.5C61.9579 54.4233 55.1041 54.8504 48.25 54.8438C36.0954 54.832 23.9493 53.926 11.8125 54.1875Z" fill="#ebd9d6" stroke="none"/>
</g>
<g opacity="1">
<path d="M45.3125 48.7188C41.8607 48.7655 38.4476 49.362 35 49.4688C30.9278 49.5949 26.8803 49.0159 22.8125 49C19.2947 48.9863 15.7942 49.212 12.2812 49.375C7.88315 49.579 3.46577 49.7552-0.9375 49.7812C-1.07632 49.7821-1.18832 49.8924-1.1875 50.0312C-1.18668 50.1701-1.07632 50.2821-0.9375 50.2812C4.1024 50.2517 9.15354 50.0063 14.1875 49.7812C17.0651 49.6526 19.9312 49.4881 22.8125 49.5C26.8863 49.5169 30.9529 50.0933 35.0312 49.9688C38.4759 49.8635 41.8951 49.2951 45.3438 49.25C48.2745 49.2117 51.1979 49.4477 54.125 49.5625C58.6248 49.739 63.1222 49.8671 67.625 49.9375C72.1303 50.008 76.6515 50.0088 81.1562 49.9062C83.7917 49.8463 86.4272 49.6683 89.0625 49.625C91.7534 49.5808 94.4356 49.8121 97.125 49.8438C98.6607 49.8618 100.188 49.7981 101.719 49.6875C101.865 49.6769 101.948 49.5525 101.938 49.4062C101.927 49.26 101.802 49.1457 101.656 49.1562C97.4368 49.4617 93.2823 49.0552 89.0625 49.125C86.4261 49.1686 83.7928 49.3147 81.1562 49.375C76.6583 49.4779 72.1549 49.5062 67.6562 49.4375C63.1576 49.3688 58.6521 49.2367 54.1562 49.0625C51.2201 48.9487 48.2523 48.6789 45.3125 48.7188Z" fill="#ebd9d6" stroke="none"/>
</g>
<g opacity="1">
<path d="M48.1562 44.1875C46.396 44.2536 44.6612 44.5219 42.9062 44.6562C41.3502 44.7753 39.7786 44.7903 38.2188 44.8125C32.1208 44.8994 26.004 44.6111 19.9062 44.8125C16.8145 44.9146 13.7198 45.0713 10.625 45.0312C8.71563 45.0066 6.84324 44.7728 4.9375 44.75C3.13791 44.7285 1.35388 44.9879-0.4375 44.7188C-0.574782 44.6982-0.698151 44.8002-0.71875 44.9375C-0.739349 45.0748-0.637282 45.1981-0.5 45.2188C1.31638 45.4909 3.08201 45.2282 4.90625 45.25C6.8117 45.2728 8.71584 45.5065 10.625 45.5312C13.7275 45.5715 16.838 45.4142 19.9375 45.3125C26.0322 45.1125 32.1239 45.4277 38.2188 45.3438C39.7893 45.3221 41.3707 45.2752 42.9375 45.1562C44.6858 45.0235 46.434 44.7526 48.1875 44.6875C50.7323 44.593 53.2436 44.9846 55.7812 45.0938C58.0507 45.1914 60.3235 45.1275 62.5938 45.1875C65.1342 45.2547 67.6777 45.3844 70.2188 45.4375C80.6577 45.6557 91.0917 45.3658 101.531 45.3125C101.678 45.3117 101.782 45.2091 101.781 45.0625C101.78 44.9159 101.678 44.7805 101.531 44.7812C91.0962 44.8357 80.6532 45.1206 70.2188 44.9062C67.6786 44.8541 65.1332 44.7224 62.5938 44.6562C60.3263 44.5972 58.0791 44.6589 55.8125 44.5625C53.2607 44.454 50.7153 44.0914 48.1562 44.1875Z" fill="#ebd9d6" stroke="none"/>
</g>
<g opacity="1">
<path d="M32.375 39.1562C28.39 39.1999 24.4499 39.8002 20.4688 39.9062C17.3253 39.99 14.2106 39.5777 11.0625 39.7188C8.50069 39.8335 5.93619 39.8566 3.375 39.9062C2.14409 39.9301 0.968107 40.0445-0.25 39.8125C-0.386376 39.7866-0.536573 39.8949-0.5625 40.0312C-0.588427 40.1676-0.480126 40.2866-0.34375 40.3125C0.910904 40.5506 2.13864 40.4309 3.40625 40.4062C4.58358 40.3834 5.72801 40.4358 6.90625 40.4062C8.75381 40.3599 10.6213 40.2002 12.4688 40.1562C15.1451 40.0925 17.7922 40.4767 20.4688 40.4062C24.8461 40.291 29.2086 39.6248 33.5938 39.6875C37.4114 39.7421 41.216 39.6476 45.0312 39.7812C47.433 39.8654 49.845 40.1265 52.25 40.125C55.0912 40.1233 57.9063 39.8546 60.75 39.9062C66.9607 40.0192 73.1578 40.908 79.375 40.9375C80.9378 40.9449 82.5043 40.9406 84.0625 40.8125C86.1588 40.6402 88.2405 40.2853 90.3438 40.1875C94.6839 39.9857 99.0103 40.1025 103.344 39.7188C103.49 39.7058 103.607 39.5836 103.594 39.4375C103.581 39.2914 103.427 39.1746 103.281 39.1875C98.9553 39.5711 94.6451 39.4539 90.3125 39.6562C88.2029 39.7548 86.1338 40.1079 84.0312 40.2812C82.4883 40.4085 80.9224 40.4134 79.375 40.4062C73.6322 40.3799 67.9192 39.6978 62.1875 39.4375C58.8666 39.2867 55.5671 39.6213 52.25 39.625C49.8513 39.6276 47.4581 39.364 45.0625 39.2812C42.7774 39.2023 40.5043 39.2475 38.2188 39.25C36.278 39.2522 34.3155 39.135 32.375 39.1562Z" fill="#ebd9d6" stroke="none"/>
</g>
<g opacity="1">
<path d="M5.6875 34.5625C3.60412 34.5193 1.52106 34.6449-0.46875 35.3125C-0.600352 35.3567-0.669176 35.5246-0.625 35.6562C-0.580824 35.7879-0.444102 35.8567-0.3125 35.8125C3.60634 34.4964 7.86878 35.3148 11.9062 35.3438C20.3896 35.4045 28.8629 35.3889 37.3438 35.6562C42.6945 35.8249 48.0258 35.3897 53.375 35.3438C69.5023 35.2051 85.622 35.1569 101.75 35.125C101.897 35.1247 102.032 35.0216 102.031 34.875C102.031 34.7284 101.897 34.5935 101.75 34.5938C85.6209 34.6275 69.5034 34.6973 53.375 34.8438C47.6745 34.8955 41.9845 35.2923 36.2812 35.125C28.15 34.8865 20.0396 34.901 11.9062 34.8438C9.85608 34.8293 7.77088 34.6057 5.6875 34.5625Z" fill="#ebd9d6" stroke="none"/>
</g>
<g opacity="1">
<path d="M85.4375 29.3125C78.7659 29.1002 72.1085 29.1538 65.4375 29.375C57.3429 29.6433 49.2563 30.7439 41.1562 30.8125C33.7196 30.8755 26.3081 30.037 18.875 29.9375C15.2532 29.889 11.6532 29.9097 8.03125 29.9375C5.33502 29.9582 2.64174 30.1489-0.03125 29.7188C-0.168307 29.6967-0.290453 29.7692-0.3125 29.9062C-0.334547 30.0433-0.262057 30.1967-0.125 30.2188C2.57666 30.6532 5.30603 30.4582 8.03125 30.4375C12.0501 30.4069 16.0755 30.3485 20.0938 30.4375C27.127 30.5932 34.117 31.4001 41.1562 31.3438C49.2605 31.2789 57.3387 30.1716 65.4375 29.9062C72.0971 29.6881 78.7461 29.6311 85.4062 29.8438C89.7277 29.9817 94.054 30.1269 98.375 30.2812C100.622 30.3615 102.878 30.5756 105.125 30.4688C105.271 30.4617 105.382 30.334 105.375 30.1875C105.368 30.041 105.24 29.9305 105.094 29.9375C102.862 30.0448 100.639 29.8295 98.4062 29.75C94.0846 29.5961 89.7596 29.45 85.4375 29.3125Z" fill="#ebd9d6" stroke="none"/>
</g>
<g opacity="1">
<path d="M73.4062 24.2812C66.4859 24.3841 59.6125 25.3639 52.6875 25.3438C44.9043 25.3212 37.1566 24.4296 29.375 24.3125C19.4068 24.1625 9.43602 24.8128-0.53125 24.875C-0.670066 24.8759-0.782113 24.9862-0.78125 25.125C-0.780387 25.2638-0.670066 25.3759-0.53125 25.375C9.43231 25.3133 19.3793 24.6596 29.3438 24.8125C37.1275 24.932 44.902 25.8487 52.6875 25.875C59.6157 25.8984 66.4829 24.9129 73.4062 24.8125C78.6713 24.7361 83.9058 25.3634 89.1562 25.625C93.4868 25.8408 97.8253 25.4661 102.156 25.4062C102.303 25.4042 102.408 25.2716 102.406 25.125C102.404 24.9784 102.303 24.873 102.156 24.875C97.8367 24.9352 93.5066 25.3086 89.1875 25.0938C83.9256 24.832 78.6828 24.2028 73.4062 24.2812Z" fill="#ebd9d6" stroke="none"/>
</g>
<g opacity="1">
<path d="M101.844 4.40625C96.4826 4.44095 91.1097 4.48629 85.75 4.625C82.1672 4.71772 78.5843 4.9107 75 4.9375C70.91 4.96808 66.8402 4.7449 62.75 4.84375C54.4019 5.0455 46.0749 5.56492 37.7188 5.375C33.5903 5.28117 29.4738 5.02644 25.3438 4.96875C20.2226 4.89722 15.0892 5.03534 9.96875 4.96875C6.43782 4.92283 2.91502 4.26362-0.59375 4.90625C-0.730293 4.93128-0.806282 5.05096-0.78125 5.1875C-0.756218 5.32404-0.636543 5.43128-0.5 5.40625C2.4201 4.87038 5.31077 5.25638 8.25 5.40625C9.45757 5.46782 10.6659 5.47194 11.875 5.46875C17.6328 5.45356 23.4001 5.38078 29.1562 5.5625C32.4 5.6649 35.6296 5.8531 38.875 5.90625C46.8431 6.03674 54.7892 5.56414 62.75 5.375C66.8373 5.27789 70.9129 5.49801 75 5.46875C78.5876 5.44307 82.1951 5.24864 85.7812 5.15625C91.1376 5.01825 96.486 4.97156 101.844 4.9375C101.99 4.93656 102.095 4.83412 102.094 4.6875C102.093 4.54088 101.99 4.40531 101.844 4.40625Z" fill="#ebd9d6" stroke="none"/>
</g>
<g opacity="1">
<path d="M5.0625-1.625C4.92583-1.64935 4.8056-1.57417 4.78125-1.4375C4.02089 2.83192 4.53724 7.10887 4.6875 11.4062C4.73201 12.6793 4.60384 13.9477 4.5625 15.2188C4.52639 16.3291 4.54763 17.452 4.5625 18.5625C4.61961 22.8292 4.83761 27.1075 4.84375 31.375C4.84772 34.1346 4.55863 36.8632 4.5625 39.625C4.56623 42.2889 4.70259 44.9619 4.75 47.625C4.84279 52.8374 4.76298 58.0371 4.84375 63.25C4.88404 65.8501 4.98045 68.4622 5 71.0625C5.02713 74.6712 4.67405 78.2678 4.625 81.875C4.53622 88.4035 5.02635 94.9063 4.8125 101.438C4.80771 101.584 4.91595 101.714 5.0625 101.719C5.20905 101.724 5.33896 101.615 5.34375 101.469C5.55696 94.934 5.06823 88.4069 5.15625 81.875C5.20491 78.264 5.5596 74.675 5.53125 71.0625C5.51084 68.4608 5.4163 65.8515 5.375 63.25C5.29223 58.0367 5.3453 52.8377 5.25 47.625C5.20136 44.9647 5.06753 42.2861 5.0625 39.625C5.05728 36.8633 5.34887 34.1346 5.34375 31.375C5.33584 27.1055 5.12058 22.8312 5.0625 18.5625C5.03006 16.1781 5.27042 13.7855 5.1875 11.4062C5.03902 7.14585 4.52675 2.88887 5.28125-1.34375C5.3056-1.48042 5.19917-1.60065 5.0625-1.625Z" fill="#ebd9d6" stroke="none"/>
</g>
<g opacity="1">
<path d="M9.875-1.0625C9.73717-1.04596 9.63971-0.919079 9.65625-0.78125C10.1748 3.53872 9.57693 7.85729 9.625 12.1875C9.70327 19.2371 10.2389 26.26 10.2188 33.3125C10.2125 35.5141 10.1899 37.7084 10.0625 39.9062C9.82979 43.9196 9.37721 47.9434 9.40625 51.9688C9.42836 55.0333 10.2831 58.0182 10.1875 61.0938C10.0748 64.72 9.71656 68.3125 9.5625 71.9375C9.51034 73.1648 9.77596 74.3981 9.71875 75.625C9.60918 77.975 9.29625 80.2992 9.34375 82.6562C9.44454 87.6583 9.78579 92.6191 9.75 97.625C9.74075 98.9195 9.9917 100.176 9.8125 101.469C9.79249 101.614 9.886 101.761 10.0312 101.781C10.1765 101.801 10.3237 101.676 10.3438 101.531C10.5243 100.212 10.2715 98.9443 10.2812 97.625C10.3184 92.6142 9.97708 87.6631 9.875 82.6562C9.82719 80.3111 10.143 77.9632 10.25 75.625C10.3062 74.3968 10.0414 73.1963 10.0938 71.9688C10.2484 68.3419 10.5777 64.722 10.6875 61.0938C10.7808 58.0098 9.92915 55.0402 9.90625 51.9688C9.87632 47.9546 10.3324 43.9397 10.5625 39.9375C10.6894 37.7302 10.7448 35.5234 10.75 33.3125C10.7667 26.2577 10.2039 19.2082 10.125 12.1562C10.0764 7.80701 10.6769 3.49559 10.1562-0.84375C10.1397-0.98158 10.0128-1.07904 9.875-1.0625Z" fill="#ebd9d6" stroke="none"/>
</g>
<g opacity="1">
<path d="M15.0312-1.09375C14.8945-1.11776 14.7428-1.04298 14.7188-0.90625C14.4949 0.371044 14.7272 1.65186 14.6875 2.9375C14.6098 5.45054 14.6243 7.95562 14.7188 10.4688C14.9142 15.6703 14.9355 20.7967 14.7812 26C14.7032 28.632 14.6794 31.2746 14.5938 33.9062C14.4854 37.2354 14.2375 40.5733 14.2812 43.9062C14.3782 51.293 14.9562 58.6481 15.1562 66.0312C15.2165 68.2536 14.733 70.4945 14.6875 72.7188C14.635 75.2832 14.8684 77.844 14.8125 80.4062C14.749 83.3171 14.3646 86.2143 14.2812 89.125C14.2128 91.5155 14.617 93.8725 14.7812 96.25C14.8976 97.933 14.7807 99.599 14.8125 101.281C14.8153 101.428 14.9472 101.565 15.0938 101.562C15.2403 101.56 15.3465 101.428 15.3438 101.281C15.3114 99.5901 15.4296 97.9109 15.3125 96.2188C15.1492 93.8591 14.7446 91.4976 14.8125 89.125C14.8959 86.2131 15.2807 83.3183 15.3438 80.4062C15.3993 77.8436 15.1673 75.2835 15.2188 72.7188C15.2636 70.4854 15.7169 68.2628 15.6562 66.0312C15.4556 58.6504 14.8819 51.2907 14.7812 43.9062C14.7359 40.5812 14.9873 37.2589 15.0938 33.9375C15.1781 31.3054 15.2038 28.6637 15.2812 26.0312C15.3685 23.0684 15.4627 20.0896 15.4375 17.125C15.4132 14.2652 15.2311 11.4209 15.1562 8.5625C15.1015 6.46993 15.2561 4.40112 15.2188 2.3125C15.2 1.26137 15.035 0.231251 15.2188-0.8125C15.2428-0.949226 15.168-1.06974 15.0312-1.09375Z" fill="#ebd9d6" stroke="none"/>
</g>
<g opacity="1">
<path d="M20.0312-0.5625C19.8925-0.566471 19.7852-0.482512 19.7812-0.34375C19.7029 2.39659 20.0013 5.10771 20.0625 7.84375C20.0934 9.22266 19.798 10.5898 19.8125 11.9688C19.8389 14.4676 20.1182 16.9351 20.0938 19.4375C20.0629 22.5995 19.8104 25.7754 19.7812 28.9375C19.7528 32.0276 19.8865 35.0974 19.8125 38.1875C19.7803 39.5328 19.4243 40.8428 19.375 42.1875C19.3056 44.0816 19.9421 45.9205 19.9375 47.8125C19.9316 50.2654 19.5242 52.702 19.5312 55.1562C19.5381 57.5356 19.8824 59.9079 20 62.2812C20.0724 63.7426 20.0594 65.1935 20.0625 66.6562C20.0698 70.1333 20.0087 73.6206 19.8438 77.0938C19.75 79.0674 19.4999 81.0548 19.5 83.0312C19.5002 85.7762 20.029 88.4755 20.0625 91.2188C20.102 94.4572 19.575 97.6971 19.2188 100.906C19.2026 101.052 19.2918 101.171 19.4375 101.188C19.5832 101.204 19.7338 101.114 19.75 100.969C20.1083 97.7377 20.603 94.4791 20.5625 91.2188C20.5285 88.4775 20.032 85.7739 20.0312 83.0312C20.0307 81.0633 20.282 79.0902 20.375 77.125C20.5398 73.6431 20.6024 70.142 20.5938 66.6562C20.5901 65.1852 20.5734 63.7196 20.5 62.25C20.3819 59.8848 20.0705 57.5274 20.0625 55.1562C20.0542 52.7031 20.4653 50.2645 20.4688 47.8125C20.4714 45.9266 19.8064 44.1049 19.875 42.2188C19.924 40.872 20.3116 39.5667 20.3438 38.2188C20.4174 35.1261 20.2537 32.0301 20.2812 28.9375C20.3094 25.7755 20.5636 22.6306 20.5938 19.4688C20.6176 16.9628 20.34 14.471 20.3125 11.9688C20.2973 10.588 20.5929 9.2251 20.5625 7.84375C20.5024 5.11628 20.203 2.41919 20.2812-0.3125C20.2852-0.451262 20.17-0.558529 20.0312-0.5625Z" fill="#ebd9d6" stroke="none"/>
</g>
<g opacity="1">
<path d="M24.9688-0.65625C24.8352-0.693998 24.694-0.633588 24.6562-0.5C24.3653 0.533859 24.6459 1.48529 24.7188 2.53125C24.8518 4.44213 24.9081 6.36804 25 8.28125C25.1498 11.3977 24.8113 14.4825 24.75 17.5938C24.7013 20.0648 24.9694 22.5296 24.8438 25C24.7793 26.2666 24.6327 27.0452 24.5312 28.3125C24.398 29.9771 24.4004 31.6437 24.4375 33.3125C24.5362 37.7481 25.033 42.1615 25.2188 46.5938C25.2891 48.2725 24.6717 49.8856 24.6875 51.5625C24.7013 53.0259 25.1697 54.4394 25.1562 55.9062C25.1274 59.0505 24.4712 62.1827 24.25 65.3125C24.1679 66.4747 24.1107 67.5717 24.25 68.7188C24.427 70.1767 24.7994 71.5826 24.7188 73.0625C24.6377 74.5509 24.4519 76.0445 24.3438 77.5312C24.1254 80.5321 23.995 83.5531 24.0625 86.5625C24.1077 88.5756 24.1907 90.5634 24.4375 92.5625C24.6141 93.9932 25.1134 95.3741 25.25 96.8125C25.4027 98.4201 25.2095 100.045 25.2188 101.656C25.2196 101.803 25.3534 101.907 25.5 101.906C25.6466 101.905 25.7509 101.803 25.75 101.656C25.7403 100.029 25.9358 98.3739 25.7812 96.75C25.6439 95.3061 25.1457 93.9357 24.9688 92.5C24.7245 90.5183 24.6388 88.5269 24.5938 86.5312C24.5262 83.5386 24.6271 80.5467 24.8438 77.5625C24.9743 75.7649 25.3201 73.9292 25.25 72.125C25.1982 70.7915 24.8345 69.4834 24.7188 68.1562C24.6369 67.2174 24.7154 66.2802 24.7812 65.3438C25.0021 62.2032 25.6625 59.0614 25.6875 55.9062C25.6992 54.4347 25.2033 53.0288 25.1875 51.5625C25.1694 49.8803 25.8207 48.249 25.75 46.5625C25.5643 42.1334 25.0384 37.7448 24.9375 33.3125C24.8999 31.661 24.8996 29.9911 25.0312 28.3438C25.1351 27.0441 25.2779 26.3329 25.3438 25.0312C25.4689 22.5552 25.2018 20.0702 25.25 17.5938C25.3108 14.471 25.6503 11.378 25.5 8.25C25.4079 6.3332 25.3527 4.41442 25.2188 2.5C25.1504 1.52284 24.8509 0.590673 25.125-0.375C25.1627-0.508588 25.1023-0.618502 24.9688-0.65625Z" fill="#ebd9d6" stroke="none"/>
</g>
<g opacity="1">
<path d="M30.25-0.84375C30.1133-0.867913 29.9929-0.792949 29.9688-0.65625C29.7364 0.661564 30.0208 1.98754 29.9375 3.3125C29.6589 7.74405 29.7646 12.1275 29.9062 16.5625C29.9833 18.9763 29.6302 21.3143 29.5625 23.7188C29.4855 26.4527 29.7724 29.1761 29.8438 31.9062C29.9528 36.0825 29.5603 40.2336 29.5312 44.4062C29.506 48.0349 29.8797 51.6532 29.9062 55.2812C29.9432 60.3218 29.521 65.3663 29.5 70.4062C29.4746 76.5002 30.2112 82.5643 30.2188 88.6562C30.2213 90.7336 29.8459 92.8038 29.7188 94.875C29.5772 97.181 29.543 99.4785 29.3438 101.781C29.3311 101.927 29.4164 102.05 29.5625 102.062C29.7086 102.075 29.8624 101.959 29.875 101.812C30.1138 99.0475 30.1209 96.297 30.3438 93.5312C30.4747 91.9066 30.7518 90.2901 30.75 88.6562C30.7431 82.5652 30.0081 76.4992 30.0312 70.4062C30.0504 65.3644 30.4769 60.3238 30.4375 55.2812C30.4091 51.6556 30.0078 48.0325 30.0312 44.4062C30.0583 40.2279 30.4549 36.0881 30.3438 31.9062C30.2714 29.1854 29.9865 26.4746 30.0625 23.75C30.1088 22.0893 30.3885 20.4417 30.4375 18.7812C30.4713 17.6358 30.413 16.4882 30.375 15.3438C30.2419 11.3291 30.1878 7.35437 30.4375 3.34375C30.5186 2.04026 30.208 0.732501 30.4375-0.5625C30.4617-0.699199 30.3867-0.819587 30.25-0.84375Z" fill="#ebd9d6" stroke="none"/>
</g>
<g opacity="1">
<path d="M34.7812-1.25C34.6464-1.21701 34.5608-1.07234 34.5938-0.9375C34.9864 0.665724 34.8292 2.23981 34.75 3.875C34.6483 5.9746 34.6208 8.05509 34.5625 10.1562C34.4851 12.9436 34.8415 15.7153 34.8438 18.5C34.8462 21.4665 34.4994 24.4378 34.625 27.4062C34.6834 28.7872 34.9511 30.124 35.0625 31.5C35.1506 32.588 35.1757 33.6904 35.1875 34.7812C35.2773 43.0724 34.4612 51.3655 34.5312 59.6562C34.5746 64.7851 34.7715 69.9015 34.7812 75.0312C34.7908 80.0642 34.5569 85.0943 34.5 90.125C34.4586 93.7837 34.5539 97.4098 34.2812 101.062C34.2703 101.209 34.385 101.333 34.5312 101.344C34.6775 101.355 34.8016 101.24 34.8125 101.094C35.0856 97.4297 34.9901 93.7949 35.0312 90.125C35.0876 85.0919 35.3235 80.0666 35.3125 75.0312C35.3004 69.4873 35.1121 63.9495 35.0625 58.4062C34.9994 51.3592 35.6294 44.3277 35.6875 37.2812C35.7034 35.3556 35.7499 33.3896 35.5938 31.4688C35.4824 30.0994 35.1833 28.7492 35.125 27.375C34.9993 24.4138 35.3469 21.4594 35.3438 18.5C35.3408 15.7202 35.0164 12.9699 35.0938 10.1875C35.1521 8.0898 35.1485 5.97115 35.25 3.875C35.3316 2.18904 35.4666 0.590487 35.0625-1.0625C35.0295-1.19734 34.9161-1.28299 34.7812-1.25Z" fill="#ebd9d6" stroke="none"/>
</g>
<g opacity="1">
<path d="M40.0625-0.5C39.9253-0.521228 39.8025-0.418436 39.7812-0.28125C39.3004 2.8286 39.8825 5.88016 39.9062 9C39.9302 12.1412 39.3862 15.261 39.5 18.4062C39.633 22.083 40.2114 25.7187 40.125 29.4062C39.9962 34.9035 39.3165 40.3741 39.25 45.875C39.2129 48.9386 39.3723 52.0026 39.5 55.0625C39.5985 57.4225 39.6462 59.798 39.7812 62.1562C39.8736 63.7693 40.0485 65.3829 40.0625 67C40.0825 69.3164 39.9312 71.6194 39.9375 73.9375C39.9496 78.378 39.9567 82.8102 39.9062 87.25C39.8783 89.7097 39.97 92.1653 39.9375 94.625C39.909 96.7807 39.6365 98.9093 39.5938 101.062C39.5909 101.209 39.7284 101.341 39.875 101.344C40.0216 101.347 40.1221 101.24 40.125 101.094C40.1673 98.9395 40.4405 96.7819 40.4688 94.625C40.501 92.165 40.4098 89.71 40.4375 87.25C40.4875 82.8077 40.4824 78.3805 40.4688 73.9375C40.4616 71.6184 40.6147 69.2862 40.5938 66.9688C40.5791 65.343 40.3749 63.7465 40.2812 62.125C40.1453 59.7695 40.1308 57.3885 40.0312 55.0312C39.9024 51.9806 39.7458 48.9293 39.7812 45.875C39.8451 40.3761 40.4984 34.9015 40.625 29.4062C40.7102 25.7083 40.1347 22.062 40 18.375C39.8853 15.2351 40.4306 12.1363 40.4062 9C40.3823 5.90967 39.8043 2.89265 40.2812-0.1875C40.3025-0.324686 40.1997-0.478772 40.0625-0.5Z" fill="#ebd9d6" stroke="none"/>
</g>
<g opacity="1">
<path d="M45.1562-0.4375C45.0189-0.457975 44.8955-0.35605 44.875-0.21875C44.6303 1.42527 44.9909 3.03896 44.9375 4.6875C44.8616 7.03293 44.4951 9.369 44.5 11.7188C44.5073 15.1848 44.9124 18.6359 45.0938 22.0938C45.2422 24.9248 44.7893 27.7336 44.7812 30.5625C44.7701 34.4842 45.2415 38.3935 45.3438 42.3125C45.5643 50.7622 44.6242 59.1571 44.4375 67.5938C44.3122 73.2532 44.907 78.8803 45.0938 84.5312C45.2976 90.6985 45.0128 96.8945 44.9688 103.062C44.9677 103.209 45.1034 103.311 45.25 103.312C45.3966 103.314 45.499 103.209 45.5 103.062C45.5433 96.8874 45.8297 90.7056 45.625 84.5312C45.4379 78.8901 44.8457 73.2434 44.9688 67.5938C45.1527 59.1487 46.0686 50.7392 45.8438 42.2812C45.7397 38.3672 45.2717 34.4793 45.2812 30.5625C45.2882 27.7239 45.7431 24.9034 45.5938 22.0625C45.4125 18.6131 45.0077 15.1763 45 11.7188C44.9948 9.37494 45.3627 7.02712 45.4375 4.6875C45.4895 3.06068 45.1327 1.46512 45.375-0.15625C45.3955-0.29355 45.2936-0.417025 45.1562-0.4375Z" fill="#ebd9d6" stroke="none"/>
</g>
<g opacity="1">
<path d="M76.5 19.3438C73.1448 19.3757 69.7583 19.2982 66.4062 19.4375C64.3987 19.521 62.4129 19.7116 60.4062 19.8125C57.8555 19.9407 55.2723 19.9082 52.7188 19.9375C48.4288 19.9868 44.1606 19.4744 39.875 19.5C34.6926 19.531 29.5244 19.9774 24.3438 20.125C21.9916 20.192 19.6012 19.8115 17.25 19.7188C13.3211 19.5637 9.42842 19.6204 5.5 19.7188C3.56941 19.7671 1.63148 19.4835-0.28125 19.8438C-0.417664 19.8695-0.494477 19.9886-0.46875 20.125C-0.443023 20.2614-0.323914 20.3695-0.1875 20.3438C1.69531 19.9882 3.59933 20.2659 5.5 20.2188C9.41768 20.1215 13.3319 20.0633 17.25 20.2188C19.6131 20.3125 21.9795 20.6913 24.3438 20.625C29.5206 20.4798 34.7277 20.0599 39.9062 20.0312C44.1928 20.0076 48.4277 20.5159 52.7188 20.4688C55.2791 20.4406 57.8487 20.4398 60.4062 20.3125C62.4114 20.2127 64.4314 20.0515 66.4375 19.9688C69.784 19.8307 73.1504 19.9062 76.5 19.875C79.4322 19.8477 82.3514 20.0993 85.2812 20.1875C90.7872 20.3533 96.3049 20.3205 101.812 20.3125C101.959 20.3123 102.094 20.1779 102.094 20.0312C102.094 19.8846 101.959 19.781 101.812 19.7812C96.3105 19.7898 90.8129 19.8212 85.3125 19.6562C82.3757 19.5682 79.4392 19.3158 76.5 19.3438Z" fill="#ebd9d6" stroke="none"/>
</g>
<g opacity="1">
<path d="M34.375 14.4375C32.4306 14.4993 30.5028 14.8603 28.5625 14.9688C25.7593 15.1254 22.9326 15.0775 20.125 15.0938C13.1784 15.1339 6.25075 14.2508-0.6875 14.8438C-0.825814 14.8556-0.949319 14.9867-0.9375 15.125C-0.925681 15.2633-0.794564 15.3556-0.65625 15.3438C6.60679 14.7231 13.9113 15.6247 21.1875 15.5625C23.6571 15.5414 26.128 15.606 28.5938 15.4688C30.5299 15.361 32.4661 15.03 34.4062 14.9688C35.923 14.9208 37.3955 15.2095 38.9062 15.2812C41.9527 15.426 45.0139 15.3923 48.0625 15.4688C50.4447 15.5285 52.8065 15.2026 55.1875 15.2188C57.6653 15.2356 60.1493 15.5569 62.625 15.625C65.5469 15.7054 68.4536 15.4904 71.375 15.5C74.4831 15.5102 77.5795 15.7018 80.6875 15.75C85.6219 15.8265 90.5694 15.7069 95.5 15.5312C98.0561 15.4402 100.564 15.5015 103.094 15.0625C103.238 15.0374 103.338 14.9257 103.312 14.7812C103.287 14.6368 103.144 14.5374 103 14.5625C99.9101 15.1003 96.7513 14.9399 93.625 15.0625C89.3227 15.2312 85.0239 15.285 80.7188 15.2188C77.6086 15.1709 74.4852 14.9778 71.375 14.9688C68.4578 14.9602 65.5427 15.1726 62.625 15.0938C60.1456 15.0267 57.6689 14.7344 55.1875 14.7188C52.8096 14.7038 50.4727 14.9962 48.0938 14.9375C45.0489 14.8624 41.9802 14.924 38.9375 14.7812C37.4127 14.7097 35.9061 14.3889 34.375 14.4375Z" fill="#ebd9d6" stroke="none"/>
</g>
<g opacity="1">
<path d="M83.9688 9.4375C80.7389 9.62619 77.524 10.2096 74.2812 10.1562C72.539 10.1276 70.8061 10.0482 69.0625 10.0625C66.545 10.0832 64.0177 10.1634 61.5 10.0938C54.3933 9.89723 47.2987 9.62405 40.1875 9.59375C26.6963 9.53626 13.2097 9.86779-0.28125 9.90625C-0.420068 9.90664-0.531642 10.0174-0.53125 10.1562C-0.530858 10.2951-0.420068 10.4066-0.28125 10.4062C13.2084 10.3686 26.6976 10.0297 40.1875 10.0938C47.2947 10.1275 54.3973 10.4255 61.5 10.625C64.0239 10.6959 66.5388 10.5823 69.0625 10.5625C70.8017 10.5488 72.5433 10.6585 74.2812 10.6875C77.5377 10.7419 80.7565 10.1578 84 9.96875C88.0331 9.73367 92.0646 10.0498 96.0938 10.1875C98.1138 10.2565 100.106 10.0944 102.125 10.25C102.271 10.2612 102.395 10.1462 102.406 10C102.417 9.85381 102.334 9.72999 102.188 9.71875C100.161 9.56325 98.1215 9.72554 96.0938 9.65625C92.0482 9.51801 88.0182 9.20093 83.9688 9.4375Z" fill="#ebd9d6" stroke="none"/>
</g>
<g opacity="1">
<path d="M54.9062 0.125C54.7678 0.114525 54.6667 0.236577 54.6562 0.375C54.4721 2.81577 55.1989 5.15673 55.1562 7.59375C55.128 9.20951 54.9939 10.8224 54.9375 12.4375C54.7675 17.3067 54.718 22.1907 54.7812 27.0625C54.8455 32.0139 55.1836 36.9551 55.2188 41.9062C55.2658 48.5324 54.7671 55.1291 54.625 61.75C54.4664 69.1368 54.7402 76.5506 54.7188 83.9375C54.7017 89.8116 54.395 95.6574 54.3438 101.531C54.3425 101.678 54.4471 101.811 54.5938 101.812C54.7404 101.814 54.8737 101.678 54.875 101.531C54.9256 95.6564 55.2337 89.8126 55.25 83.9375C55.2705 76.5538 55.0012 69.1649 55.1562 61.7812C55.2954 55.1554 55.7691 48.5372 55.7188 41.9062C55.6811 36.9541 55.3466 32.015 55.2812 27.0625C55.217 22.1988 55.2682 17.3299 55.4375 12.4688C55.4939 10.8508 55.6288 9.21244 55.6562 7.59375C55.6974 5.16739 54.972 2.83434 55.1562 0.40625C55.1667 0.267827 55.0447 0.135475 54.9062 0.125Z" fill="#ebd9d6" stroke="none"/>
</g>
<g opacity="1">
<path d="M49.9375-0.21875C49.7991-0.229309 49.6668-0.138416 49.6562 0C49.2911 4.78661 49.7869 9.55774 49.9375 14.3438C50.1237 20.2626 50.0997 26.2039 50.0938 32.125C50.0865 39.2785 49.6696 46.4097 49.7188 53.5625C49.7585 59.3489 50.3637 65.1193 50.3125 70.9062C50.2773 74.885 49.9855 78.8662 49.875 82.8438C49.7033 89.023 49.6717 95.2249 49.6562 101.406C49.6559 101.553 49.7596 101.656 49.9062 101.656C50.0529 101.657 50.1871 101.553 50.1875 101.406C50.2022 95.2294 50.2354 89.0498 50.4062 82.875C50.5164 78.8941 50.8099 74.9196 50.8438 70.9375C50.8929 65.1476 50.2926 59.3518 50.25 53.5625C50.1974 46.4111 50.59 39.2771 50.5938 32.125C50.5972 25.6098 50.6178 19.0744 50.375 12.5625C50.2189 8.37493 49.8366 4.22156 50.1562 0.03125C50.1668-0.107166 50.0759-0.208191 49.9375-0.21875Z" fill="#ebd9d6" stroke="none"/>
</g>
<g opacity="1">
<path d="M60.0625-0.34375C59.9317-0.390205 59.7964-0.318315 59.75-0.1875C59.375 0.872 59.6888 2.06786 59.75 3.15625C59.8247 4.485 59.8874 5.82462 59.875 7.15625C59.8646 8.27033 59.5167 9.36554 59.5625 10.4688C59.6516 12.6157 60.0076 14.7592 60.0938 16.9062C60.2149 19.9259 60.0211 22.9225 59.875 25.9375C59.6928 29.6975 59.6062 33.455 59.7188 37.2188C59.7839 39.3984 60.1498 41.6016 60.0938 43.7812C60.0626 44.9907 59.8649 46.2037 59.75 47.4062C59.5765 49.222 59.4574 51.0187 59.5 52.8438C59.5882 56.6227 60.127 60.4009 60.0625 64.1875C60.0157 66.9326 59.7679 69.6592 59.7188 72.4062C59.6478 76.3735 59.7054 80.3464 59.5625 84.3125C59.4313 87.9544 59.1523 91.6036 59.1875 95.25C59.2051 97.075 59.3504 98.8699 59.5 100.688C59.512 100.834 59.6351 100.95 59.7812 100.938C59.9274 100.925 60.0433 100.802 60.0312 100.656C59.8825 98.8514 59.7364 97.031 59.7188 95.2188C59.6832 91.5804 59.9633 87.9463 60.0938 84.3125C60.2541 79.8485 60.1591 75.402 60.2812 70.9375C60.3428 68.6871 60.5562 66.4379 60.5938 64.1875C60.657 60.3935 60.1213 56.6298 60.0312 52.8438C59.9883 51.0391 60.0793 49.2643 60.25 47.4688C60.3655 46.2541 60.5629 45.0341 60.5938 43.8125C60.6491 41.6227 60.2853 39.4084 60.2188 37.2188C60.0862 32.8588 60.2535 28.5102 60.4688 24.1562C60.5886 21.7312 60.6918 19.3028 60.5938 16.875C60.5071 14.7276 60.1553 12.5846 60.0625 10.4375C60.0345 9.79081 60.2307 9.19726 60.3125 8.5625C60.4143 7.77211 60.3917 6.95045 60.375 6.15625C60.3469 4.82308 60.2718 3.48688 60.1875 2.15625C60.1397 1.40181 59.9592 0.696923 60.2188-0.03125C60.2652-0.162065 60.1933-0.297295 60.0625-0.34375Z" fill="#ebd9d6" stroke="none"/>
</g>
<g opacity="1">
<path d="M64.9062-0.34375C64.7679-0.355713 64.6682-0.263302 64.6562-0.125C64.3329 3.61252 64.3386 7.31933 64.5625 11.0625C64.7254 13.7861 65.0773 16.5206 65.125 19.25C65.1604 21.2742 65.0501 23.2883 65.0625 25.3125C65.085 28.9746 65.2295 32.6178 65.1562 36.2812C65.0864 39.7761 64.8282 43.286 64.875 46.7812C64.8972 48.4369 65.0531 50.0987 65.1562 51.75C65.2743 53.6402 65.2951 55.5127 65.2812 57.4062C65.2559 60.884 65.0767 64.3656 65.0938 67.8438C65.1041 69.9616 65.2129 72.1007 65.2188 74.2188C65.2265 77.0326 65.1326 79.8461 65 82.6562C64.7677 87.5796 64.3698 92.5061 64.5312 97.4375C64.5767 98.8264 64.4271 100.249 64.625 101.625C64.646 101.77 64.7924 101.896 64.9375 101.875C65.0826 101.854 65.1772 101.708 65.1562 101.562C64.9595 100.208 65.1075 98.7733 65.0625 97.4062C64.8823 91.9264 65.36 86.4406 65.5938 80.9688C65.7811 76.5841 65.6481 72.2274 65.625 67.8438C65.6067 64.3678 65.7889 60.9131 65.8125 57.4375C65.8254 55.5319 65.7759 53.6209 65.6562 51.7188C65.5529 50.0759 65.3979 48.4284 65.375 46.7812C65.3266 43.2918 65.5882 39.8016 65.6562 36.3125C65.7278 32.6447 65.6171 28.9789 65.5938 25.3125C65.5809 23.2864 65.6609 21.2449 65.625 19.2188C65.5765 16.4822 65.226 13.762 65.0625 11.0312C64.8399 7.31257 64.8351 3.61934 65.1562-0.09375C65.1682-0.232052 65.0446-0.331787 64.9062-0.34375Z" fill="#ebd9d6" stroke="none"/>
</g>
<g opacity="1">
<path d="M69.9062-0.34375C69.7674-0.342862 69.6553-0.232566 69.6562-0.09375C69.7073 7.91999 70.2541 15.9238 70.25 23.9375C70.2489 26.11 70.1816 28.2653 70.1562 30.4375C70.123 33.2906 70.213 36.1472 70.125 39C69.9837 43.5764 69.5741 48.138 69.5625 52.7188C69.5579 54.5427 69.6399 56.3633 69.625 58.1875C69.6101 60.0067 69.5466 61.8369 69.5938 63.6562C69.6546 66.0053 69.8493 68.3365 69.8438 70.6875C69.835 74.4058 69.635 78.1247 69.5938 81.8438C69.5216 88.3454 69.5828 94.8731 69.5938 101.375C69.594 101.522 69.7284 101.625 69.875 101.625C70.0216 101.625 70.1253 101.522 70.125 101.375C70.1133 94.8754 70.0536 88.3744 70.125 81.875C70.1659 78.1544 70.3677 74.4073 70.375 70.6875C70.3796 68.3315 70.1869 66.0103 70.125 63.6562C70.0653 61.3873 70.1768 59.1126 70.1562 56.8438C70.1439 55.4749 70.091 54.0878 70.0938 52.7188C70.1031 48.143 70.5175 43.6028 70.6562 39.0312C70.743 36.1751 70.624 33.2939 70.6562 30.4375C70.6808 28.2634 70.7806 26.1119 70.7812 23.9375C70.7836 15.9227 70.2077 7.92117 70.1562-0.09375C70.1554-0.232566 70.0451-0.344638 69.9062-0.34375Z" fill="#ebd9d6" stroke="none"/>
</g>
<g opacity="1">
<path d="M75.0312-1C74.757-1.04308 74.4806-0.868024 74.4375-0.59375C74.1542 1.22034 74.6175 2.99757 74.6562 4.8125C74.7784 10.5378 75.2982 16.2727 75.125 22C75.0417 24.754 74.5843 27.4955 74.5 30.25C74.3733 34.3901 74.631 38.516 74.5938 42.6562C74.5199 50.8697 73.9295 59.0673 73.8438 67.2812C73.808 70.706 74.0639 74.1397 74.0938 77.5625C74.1129 79.756 74.0156 81.9316 74.0312 84.125C74.0487 86.5773 74.1845 89.0488 74.25 91.5C74.3515 95.2981 74.3771 99.0758 74.4062 102.875C74.4085 103.168 74.6443 103.409 74.9375 103.406C75.2307 103.404 75.471 103.168 75.4688 102.875C75.4386 99.0691 75.415 95.2735 75.3125 91.4688C75.2466 89.0245 75.1117 86.5703 75.0938 84.125C75.0776 81.931 75.1764 79.7566 75.1562 77.5625C75.1249 74.1463 74.8729 70.7306 74.9062 67.3125C74.9864 59.0982 75.559 50.8702 75.625 42.6562C75.6582 38.5233 75.377 34.4141 75.5 30.2812C75.5819 27.5269 76.0737 24.7854 76.1562 22.0312C76.3285 16.2868 75.8142 10.5236 75.6875 4.78125C75.649 3.03587 75.1619 1.30593 75.4375-0.4375C75.4806-0.711774 75.3055-0.956916 75.0312-1Z" fill="#ebd9d6" stroke="none"/>
</g>
<g opacity="1">
<path d="M80.125-0.59375C79.9886-0.6196 79.8696-0.511391 79.8438-0.375C79.3753 2.09904 79.7275 4.56456 79.6562 7.0625C79.5294 11.5101 79.3401 15.955 79.4062 20.4062C79.4475 23.1832 79.6939 25.9426 79.6875 28.7188C79.6823 30.9784 79.4499 33.2407 79.4375 35.5C79.4228 38.1789 79.6216 40.8521 79.6562 43.5312C79.6973 46.7022 79.6521 49.8926 79.5625 53.0625C79.4479 57.1163 78.9502 61.1638 79.0625 65.2188C79.207 70.439 79.6185 75.6567 79.8125 80.875C79.8993 83.2106 79.6853 85.539 79.75 87.875C79.876 92.4223 80.0215 96.929 79.625 101.469C79.6123 101.615 79.7289 101.737 79.875 101.75C80.0211 101.763 80.1435 101.646 80.1562 101.5C80.554 96.9398 80.4087 92.4426 80.2812 87.875C80.216 85.5374 80.4307 83.2124 80.3438 80.875C80.1497 75.6583 79.7407 70.4374 79.5938 65.2188C79.4799 61.174 79.9814 57.1063 80.0938 53.0625C80.1968 49.3555 80.2036 45.645 80.125 41.9375C80.0795 39.7915 79.9268 37.6466 79.9375 35.5C79.9488 33.2402 80.183 30.9789 80.1875 28.7188C80.193 25.9396 79.9794 23.1862 79.9375 20.4062C79.8705 15.9622 80.0304 11.5341 80.1562 7.09375C80.2262 4.62511 79.8487 2.16351 80.3125-0.28125C80.3383-0.417641 80.2614-0.5679 80.125-0.59375Z" fill="#ebd9d6" stroke="none"/>
</g>
<g opacity="1">
<path d="M84.9375-0.46875C84.7989-0.477085 84.6646-0.388568 84.6562-0.25C84.5619 1.32241 84.7363 2.86663 84.75 4.4375C84.7659 6.26031 84.6517 8.08145 84.6875 9.90625C84.7665 13.9264 85.081 17.9463 85.0312 21.9688C84.9518 28.3881 84.9419 34.8002 84.8125 41.2188C84.7333 45.1478 84.5495 49.0721 84.4375 53C84.3003 57.8082 84.2774 62.6285 84.3438 67.4375C84.4261 73.409 84.8599 79.3696 84.8438 85.3438C84.836 88.199 84.6328 91.025 84.5 93.875C84.388 96.2782 84.5272 98.6425 84.125 101.031C84.1007 101.176 84.1992 101.319 84.3438 101.344C84.4883 101.368 84.6319 101.27 84.6562 101.125C85.0609 98.7139 84.9183 96.3311 85.0312 93.9062C85.1643 91.0485 85.3364 88.2067 85.3438 85.3438C85.3592 79.3666 84.9596 73.4119 84.875 67.4375C84.807 62.6359 84.8029 57.8322 84.9375 53.0312C85.0477 49.1019 85.2664 45.1805 85.3438 41.25C85.4369 36.5154 85.3525 31.7659 85.4375 27.0312C85.4769 24.8401 85.5782 22.6608 85.5625 20.4688C85.5373 16.9472 85.2569 13.4268 85.1875 9.90625C85.1516 8.08328 85.266 6.25851 85.25 4.4375C85.2363 2.87829 85.0934 1.34183 85.1875-0.21875C85.1958-0.357318 85.0761-0.460415 84.9375-0.46875Z" fill="#ebd9d6" stroke="none"/>
</g>
<g opacity="1">
<path d="M89.9688-0.53125C89.8304-0.542318 89.6986-0.450877 89.6875-0.3125C89.4213 3.0165 89.8064 6.29505 89.8438 9.625C89.8911 13.85 89.6223 18.11 89.6562 22.3438C89.7048 28.3994 90.0508 34.4458 90.0938 40.5C90.1314 45.8063 89.8348 51.1003 89.8438 56.4062C89.8504 60.3788 90.1389 64.34 90.1562 68.3125C90.2051 79.5014 89.8854 90.6861 89.8438 101.875C89.8432 102.022 89.9784 102.156 90.125 102.156C90.2716 102.157 90.3745 102.022 90.375 101.875C90.4154 90.6847 90.7405 79.5028 90.6875 68.3125C90.6687 64.3405 90.3835 60.3783 90.375 56.4062C90.3636 51.0995 90.6652 45.8072 90.625 40.5C90.5791 34.4456 90.2062 28.3996 90.1562 22.3438C90.1213 18.1098 90.3914 13.8553 90.3438 9.625C90.3064 6.31078 89.9224 3.06316 90.1875-0.25C90.1986-0.388377 90.1071-0.520182 89.9688-0.53125Z" fill="#ebd9d6" stroke="none"/>
</g>
<g opacity="1">
<path d="M94.9062-0.25C94.7675-0.252824 94.6591-0.13879 94.6562 0C94.6007 2.72977 94.2856 5.45575 94.375 8.1875C94.4515 10.5258 94.9 12.8509 95 15.1875C95.1152 17.8803 94.7838 20.5583 94.7812 23.25C94.7782 26.5211 95.083 29.7898 95 33.0625C94.7734 42 94.4124 50.9017 94.375 59.8438C94.3454 66.9112 94.6206 73.9678 94.75 81.0312C94.8373 85.7986 94.5846 90.577 94.5938 95.3438C94.599 98.0695 94.7486 100.751 94.9375 103.469C94.9477 103.615 95.0725 103.729 95.2188 103.719C95.365 103.709 95.4789 103.584 95.4688 103.438C95.2803 100.732 95.1305 98.0576 95.125 95.3438C95.1153 90.5741 95.3692 85.8015 95.2812 81.0312C95.1511 73.9717 94.8801 66.9073 94.9062 59.8438C94.9394 50.9053 95.2783 41.9964 95.5 33.0625C95.5813 29.7855 95.2789 26.5252 95.2812 23.25C95.2831 20.5508 95.6162 17.8566 95.5 15.1562C95.3995 12.8213 94.9516 10.524 94.875 8.1875C94.7858 5.46495 95.1009 2.72067 95.1562 0C95.1591-0.13879 95.045-0.247176 94.9062-0.25Z" fill="#ebd9d6" stroke="none"/>
</g>
<g opacity="1">
<path d="M13.5938 94.1875C11.2187 94.2711 8.87255 94.7032 6.5 94.8125C4.43001 94.9079 2.38359 94.4884 0.3125 94.5625C0.173771 94.5675 0.057525 94.6738 0.0625 94.8125C0.0674751 94.9512 0.173771 95.0675 0.3125 95.0625C2.38519 94.988 4.45891 95.4073 6.53125 95.3125C8.90205 95.2041 11.2206 94.771 13.5938 94.6875C15.8819 94.607 18.1839 94.881 20.4688 94.9375C23.112 95.0029 25.7326 94.7987 28.375 94.9062C32.3812 95.0694 36.3598 95.7229 40.375 95.6875C48.2192 95.6184 56.0233 94.5791 63.875 94.7188C70.0775 94.8291 76.2587 95.7073 82.4688 95.625C85.5561 95.5841 88.6329 95.4101 91.7188 95.3125C93.3504 95.2609 94.9956 95.2654 96.625 95.1562C98.4556 95.0336 100.223 94.7991 102.062 94.875C102.209 94.881 102.338 94.7402 102.344 94.5938C102.35 94.4472 102.24 94.3498 102.094 94.3438C99.8747 94.2533 97.6815 94.6159 95.4688 94.6875C91.1276 94.828 86.78 95.0356 82.4375 95.0938C75.5837 95.1855 68.79 94.2041 61.9375 94.1875C54.7409 94.17 47.569 95.1205 40.375 95.1875C36.3687 95.2248 32.4038 94.5679 28.4062 94.4062C25.761 94.2993 23.1147 94.5024 20.4688 94.4375C18.1737 94.3812 15.8922 94.1066 13.5938 94.1875Z" fill="#ebd9d6" stroke="none"/>
</g>
</g>
<g clip-path="url(#ArtboardFrame)" id="Layer-2" vectornator:layerName="Layer 2">
<g opacity="1">
<path d="M82.5938 3.9375C79.4167 4.10295 76.2798 4.62453 73.0938 4.71875C65.6772 4.93808 58.2618 4.75037 50.8438 4.71875C50.5505 4.71758 50.2824 4.95675 50.2812 5.25C50.2801 5.54324 50.5192 5.78008 50.8125 5.78125C58.5815 5.81018 66.359 6.00897 74.125 5.71875C76.9753 5.61223 79.7804 5.08871 82.625 4.9375C86.6733 4.7223 90.7227 4.96923 94.75 5.375C95.0262 5.40287 95.2847 5.21374 95.3125 4.9375C95.3404 4.66127 95.12 4.40287 94.8438 4.375C90.7656 3.96302 86.6933 3.72402 82.5938 3.9375Z" fill="#68c40c" stroke="none"/>
</g>
<g opacity="1">
<path d="M50.3438 4.375C50.051 4.39231 49.8264 4.61351 49.8438 4.90625C49.8943 5.75039 49.9858 6.62321 50 7.46875C50.0722 11.7813 49.3241 16.0248 49.6875 20.3438C49.7107 20.6204 49.9733 20.8045 50.25 20.7812C50.5267 20.758 50.7419 20.5267 50.7188 20.25C50.4315 16.8158 50.8296 13.458 51 10.0312C51.0864 8.29337 51.0075 6.57851 50.9062 4.84375C50.8889 4.55101 50.6365 4.35769 50.3438 4.375Z" fill="#68c40c" stroke="none"/>
</g>
<g opacity="1">
<path d="M70.25 18.9062C66.94 18.8867 63.6148 18.9832 60.3125 19.1562C56.957 19.3321 53.679 19.8192 50.3125 19.5938C50.0199 19.5743 49.7694 19.8011 49.75 20.0938C49.7306 20.3864 49.9574 20.6368 50.25 20.6562C53.6614 20.8802 56.9761 20.374 60.375 20.1875C66.9321 19.8276 73.518 19.7575 80.0625 20.3438C80.339 20.3686 80.6002 20.1828 80.625 19.9062C80.6498 19.6297 80.4328 19.3686 80.1562 19.3438C76.8611 19.0474 73.56 18.9258 70.25 18.9062Z" fill="#68c40c" stroke="none"/>
</g>
<g opacity="1">
<path d="M75.125 34.1875C73.5831 34.2443 72.0514 34.3552 70.5 34.375C64.0656 34.457 57.6226 34.3777 51.1875 34.375C50.8943 34.375 50.6563 34.613 50.6562 34.9062C50.6562 35.1995 50.8943 35.4375 51.1875 35.4375C57.6274 35.4348 64.061 35.508 70.5 35.4062C73.5368 35.3583 76.5753 34.8665 79.5938 35.375C79.8675 35.4211 80.1102 35.2425 80.1562 34.9688C80.2023 34.695 80.0238 34.4523 79.75 34.4062C78.2083 34.1469 76.6669 34.1307 75.125 34.1875Z" fill="#68c40c" stroke="none"/>
</g>
<g opacity="1">
<path d="M50.7188 34.9375C50.4428 34.9067 50.187 35.0991 50.1562 35.375C49.623 40.1391 49.1552 44.8308 49.5 49.625C49.5213 49.9175 49.77 50.1463 50.0625 50.125C50.355 50.1037 50.5838 49.8237 50.5625 49.5312C50.2146 44.8045 50.6342 40.1682 51.1562 35.4688C51.187 35.1928 50.9947 34.9683 50.7188 34.9375Z" fill="#68c40c" stroke="none"/>
</g>
<g opacity="1">
<path d="M50.125 49.4062C49.8318 49.4062 49.5937 49.6443 49.5938 49.9375C49.5938 50.2307 49.8318 50.4687 50.125 50.4688C59.9775 50.4648 69.8037 50.4394 79.6562 50.4375C79.9339 50.4375 80.1875 50.2151 80.1875 49.9375C80.1875 49.6599 79.9339 49.4375 79.6562 49.4375C69.8037 49.4356 59.9775 49.4102 50.125 49.4062Z" fill="#68c40c" stroke="none"/>
</g>
<g opacity="1">
<path d="M79.5312 49.75C79.2387 49.7699 79.0426 50.0512 79.0625 50.3438C79.3997 55.254 78.8003 60.1911 79.625 65.0625C79.6713 65.3363 79.9138 65.515 80.1875 65.4688C80.4613 65.4225 80.6713 65.18 80.625 64.9062C79.8083 60.0695 80.452 55.1265 80.125 50.25C80.1051 49.9574 79.8238 49.7301 79.5312 49.75Z" fill="#68c40c" stroke="none"/>
</g>
<g opacity="1">
<path d="M68.0938 64.125C64.1105 64.2542 60.1448 64.6875 56.1562 64.7188C54.1799 64.7342 52.2186 64.6203 50.25 64.4688C49.9576 64.4464 49.7099 64.6451 49.6875 64.9375C49.6651 65.2299 49.8639 65.4776 50.1562 65.5C52.1547 65.6522 54.15 65.7988 56.1562 65.7812C60.1546 65.7463 64.1328 65.2688 68.125 65.125C72.0593 64.9833 75.9425 65.6196 79.875 65.3125C80.1518 65.2909 80.3654 65.058 80.3438 64.7812C80.3222 64.5045 80.0893 64.2909 79.8125 64.3125C75.8953 64.6179 72.0136 63.9979 68.0938 64.125Z" fill="#68c40c" stroke="none"/>
</g>
<g opacity="1">
<path d="M49.9062 64.625C49.614 64.649 49.3822 64.9265 49.4062 65.2188C49.8076 70.0516 49.5979 74.8913 50.0625 79.7188C50.089 79.9951 50.3174 80.214 50.5938 80.1875C50.8701 80.161 51.089 79.9014 51.0625 79.625C50.6016 74.8003 50.862 69.9558 50.4688 65.125C50.4447 64.8327 50.1985 64.601 49.9062 64.625Z" fill="#68c40c" stroke="none"/>
</g>
<g opacity="1">
<path d="M50.7812 79.3125C50.4894 79.284 50.2472 79.5206 50.2188 79.8125C50.1903 80.1044 50.3956 80.3465 50.6875 80.375C56.8055 80.9703 62.9229 81.0006 69.0625 80.7812C72.1025 80.6726 75.1472 80.4601 78.1875 80.375C81.3505 80.2864 84.4673 80.6577 87.625 80.6562C90.0533 80.6551 92.4784 80.3924 94.9062 80.3438C95.1838 80.3382 95.4118 80.1213 95.4062 79.8438C95.4007 79.5662 95.1526 79.3382 94.875 79.3438C92.4539 79.3918 90.0464 79.6573 87.625 79.6562C84.4583 79.6549 81.3285 79.262 78.1562 79.3438C75.1132 79.4222 72.074 79.6481 69.0312 79.75C62.9382 79.9541 56.8523 79.9065 50.7812 79.3125Z" fill="#68c40c" stroke="none"/>
</g>
<g opacity="1">
<path d="" fill="#68c40c" stroke="none"/>
</g>
<g opacity="1">
<path d="M94.9062 3.8125C94.613 3.81294 94.3745 4.0505 94.375 4.34375C94.3821 8.64404 94.3933 12.9508 94.5 17.25C94.5725 20.1725 94.7851 23.1073 94.75 26.0312C94.7266 27.9784 94.5067 29.9276 94.5312 31.875C94.5492 33.3018 94.736 34.7294 94.75 36.1562C94.7732 38.5122 94.5818 40.8637 94.5312 43.2188C94.445 47.2382 94.4664 51.2611 94.4688 55.2812C94.4718 60.5315 94.5173 65.7812 94.4688 71.0312C94.4414 73.9925 94.0885 76.9049 94.5938 79.8438C94.6408 80.1174 94.8826 80.2971 95.1562 80.25C95.4299 80.2029 95.6096 79.9611 95.5625 79.6875C95.0672 76.8129 95.4723 73.9278 95.5 71.0312C95.5502 65.778 95.4962 60.5347 95.5 55.2812C95.5029 51.2687 95.4712 47.2618 95.5625 43.25C95.6164 40.884 95.8015 38.4919 95.7812 36.125C95.769 34.697 95.6105 33.2715 95.5938 31.8438C95.5709 29.9051 95.7873 27.9696 95.8125 26.0312C95.8506 23.0942 95.6344 20.1544 95.5625 17.2188C95.4574 12.9277 95.4432 8.63586 95.4375 4.34375C95.4371 4.0505 95.1995 3.81206 94.9062 3.8125Z" fill="#68c40c" stroke="none"/>
</g>
<g opacity="1">
<path d="M79.3125 19.5C79.0193 19.5052 78.7761 19.738 78.7812 20.0312C78.873 24.9924 79.3891 29.9446 79.4375 34.9062C79.4401 35.1839 79.6599 35.4089 79.9375 35.4062C80.2151 35.4036 80.4401 35.1526 80.4375 34.875C80.3928 29.9115 79.9276 24.9629 79.8438 20C79.8386 19.7068 79.6057 19.4948 79.3125 19.5Z" fill="#68c40c" stroke="none"/>
</g>
<g opacity="1">
<path d="M49.7812 49.7812C49.488 49.7827 49.2486 50.0193 49.25 50.3125C49.2763 54.886 49.4133 59.4578 49.4375 64.0312C49.4389 64.3089 49.6911 64.5326 49.9688 64.5312C50.2464 64.5299 50.4701 64.3089 50.4688 64.0312C50.4484 59.4581 50.3309 54.8857 50.3125 50.3125C50.3111 50.0193 50.0745 49.7798 49.7812 49.7812Z" fill="#3e68ff" stroke="none"/>
</g>
<g opacity="1">
<path d="M49.7812 20.0312C49.4881 20.0368 49.2445 20.2693 49.25 20.5625C49.3432 25.2997 49.8886 30.0122 49.9375 34.75C49.9403 35.0276 50.1599 35.2528 50.4375 35.25C50.7151 35.2472 50.9403 35.0276 50.9375 34.75C50.8923 30.0102 50.3978 25.3016 50.3125 20.5625C50.307 20.2693 50.0744 20.0257 49.7812 20.0312Z" fill="#3e68ff" stroke="none"/>
</g>
<g opacity="1">
<path d="M50.1562 79.5C49.8639 79.5224 49.6338 79.8014 49.6562 80.0938C50.033 84.955 49.6368 89.7598 49.5938 94.625C49.5912 94.9026 49.8161 95.1224 50.0938 95.125C50.3714 95.1276 50.6224 94.9026 50.625 94.625C50.6721 89.7278 51.0901 84.8949 50.7188 80C50.6963 79.7076 50.4486 79.4776 50.1562 79.5Z" fill="#3e68ff" stroke="none"/>
</g>
<g opacity="1">
<path d="M49.9688 93.9688C44.5618 94.4816 39.1994 94.1697 33.7812 94.25C29.8633 94.3081 25.9502 94.5623 22.0312 94.625C16.3821 94.7153 10.7121 94.6698 5.0625 94.6562C4.76925 94.6556 4.53188 94.8942 4.53125 95.1875C4.53062 95.4807 4.76925 95.7181 5.0625 95.7188C10.7188 95.7293 16.3755 95.7883 22.0312 95.6875C25.95 95.6176 29.8636 95.348 33.7812 95.2812C39.2256 95.1885 44.6606 95.4851 50.0938 94.9688C50.3701 94.9425 50.5575 94.7139 50.5312 94.4375C50.505 94.1611 50.2452 93.9425 49.9688 93.9688Z" fill="#3e68ff" stroke="none"/>
</g>
<g opacity="1">
<path d="M5.625 19.625C5.33175 19.625 5.09375 19.863 5.09375 20.1562C5.09375 20.4495 5.33175 20.6875 5.625 20.6875C20.3481 20.6835 35.0582 20.6582 49.7812 20.6562C50.0589 20.6562 50.2812 20.4339 50.2812 20.1562C50.2812 19.8786 50.0589 19.6563 49.7812 19.6562C35.0582 19.6543 20.3481 19.6289 5.625 19.625Z" fill="#3e68ff" stroke="none"/>
</g>
<g opacity="1">
<path d="M4.9375 19.875C4.64537 19.9006 4.44319 20.1454 4.46875 20.4375C4.67804 22.8255 4.79428 25.2265 4.78125 27.625C4.76025 31.4911 4.44166 35.3207 4.46875 39.1875C4.48401 41.3649 4.55998 43.541 4.53125 45.7188C4.48748 49.037 4.34415 52.3668 4.40625 55.6875C4.49063 60.1994 4.734 64.7046 4.625 69.2188C4.53792 72.8248 4.30224 76.4236 4.25 80.0312C4.20692 83.0063 4.29636 85.9653 4.40625 88.9375C4.48456 91.0554 4.29249 93.1826 4.65625 95.2812C4.70373 95.5548 4.9452 95.735 5.21875 95.6875C5.4923 95.64 5.70373 95.3673 5.65625 95.0938C5.29979 93.043 5.48219 90.976 5.40625 88.9062C5.29784 85.9512 5.20538 82.9891 5.25 80.0312C5.30437 76.4269 5.56454 72.8526 5.65625 69.25C5.77153 64.7214 5.51613 60.1829 5.4375 55.6562C5.38001 52.3465 5.54676 49.0572 5.59375 45.75C5.62479 43.5652 5.54496 41.3721 5.53125 39.1875C5.50701 35.325 5.82155 31.4868 5.84375 27.625C5.85773 25.1937 5.74264 22.7958 5.53125 20.375C5.50569 20.0829 5.22963 19.8494 4.9375 19.875Z" fill="#3e68ff" stroke="none"/>
</g>
<g opacity="1">
<path d="M50.5 79.125C45.6846 79.1376 40.8769 79.1322 36.0625 79.25C33.4058 79.315 30.7513 79.5212 28.0938 79.5312C25.232 79.5421 22.4348 79.026 19.5625 79.1875C19.2697 79.2042 19.0458 79.4572 19.0625 79.75C19.0792 80.0428 19.3322 80.2667 19.625 80.25C22.4768 80.0854 25.2508 80.6103 28.0938 80.5938C30.7588 80.5782 33.4298 80.355 36.0938 80.2812C40.9 80.1482 45.6924 80.1707 50.5 80.1562C50.7776 80.1555 51.0008 79.9026 51 79.625C50.9992 79.3474 50.7776 79.1242 50.5 79.125Z" fill="#3e68ff" stroke="none"/>
</g>
<g opacity="1">
<path d="M49.8125 63.5312C44.438 64.0112 39.0749 63.8183 33.6875 63.8125C29.1126 63.8076 24.5434 63.9996 19.9688 64.0312C19.6755 64.0334 19.4354 64.3005 19.4375 64.5938C19.4396 64.887 19.6755 65.0959 19.9688 65.0938C24.5413 65.0585 29.1149 64.854 33.6875 64.8438C39.1039 64.8316 44.5034 65.0156 49.9062 64.5312C50.1828 64.5065 50.3997 64.2453 50.375 63.9688C50.3503 63.6922 50.089 63.5065 49.8125 63.5312Z" fill="#3e68ff" stroke="none"/>
</g>
<g opacity="1">
<path d="M20.0938 49.0625C19.8014 49.0399 19.5538 49.2389 19.5312 49.5312C19.5087 49.8236 19.7076 50.1024 20 50.125C21.8341 50.2658 23.6592 50.3746 25.5 50.375C28.6696 50.3757 31.8298 50.1584 35 50.2188C38.0791 50.2774 41.1718 50.2257 44.25 50.2812C46.0295 50.3134 47.8156 50.6081 49.5938 50.5C49.8709 50.4831 50.0794 50.2459 50.0625 49.9688C50.0456 49.6916 49.8084 49.4518 49.5312 49.4688C47.7824 49.5762 46.0316 49.3154 44.2812 49.2812C41.2035 49.2213 38.1097 49.2563 35.0312 49.1875C31.8543 49.1165 28.6764 49.3157 25.5 49.3125C23.6861 49.3106 21.9008 49.2027 20.0938 49.0625Z" fill="#3e68ff" stroke="none"/>
</g>
<g opacity="1">
<path d="M33.0625 34.0625C28.9009 34.1165 24.7544 34.5637 20.5938 34.625C20.3005 34.6294 20.0893 34.863 20.0938 35.1562C20.0982 35.4495 20.3318 35.6919 20.625 35.6875C24.7856 35.6226 28.9327 35.1611 33.0938 35.0938C38.8228 35.0011 44.5216 35.3708 50.25 35.4062C50.5276 35.408 50.7795 35.1839 50.7812 34.9062C50.783 34.6286 50.5589 34.408 50.2812 34.4062C44.5451 34.3686 38.7991 33.988 33.0625 34.0625Z" fill="#3e68ff" stroke="none"/>
</g>
<g opacity="1">
<path d="" fill="#3e68ff" stroke="none"/>
</g>
<g opacity="1">
<path d="M20.4688 64.4375C20.1755 64.4326 19.9111 64.6755 19.9062 64.9688C19.8297 69.7967 19.4191 74.613 19.7812 79.4375C19.8019 79.7144 20.0669 79.9269 20.3438 79.9062C20.6206 79.8856 20.8019 79.6519 20.7812 79.375C20.4247 74.5811 20.8848 69.7654 20.9688 64.9688C20.9736 64.6755 20.762 64.4424 20.4688 64.4375Z" fill="#3e68ff" stroke="none"/>
</g>
<g opacity="1">
<path d="M20.125 34.2812C19.8318 34.2812 19.5937 34.5193 19.5938 34.8125C19.5977 39.7388 19.5918 44.6675 19.5938 49.5938C19.5938 49.8714 19.8474 50.0937 20.125 50.0938C20.4026 50.0938 20.625 49.8714 20.625 49.5938C20.627 44.6675 20.6523 39.7388 20.6562 34.8125C20.6562 34.5193 20.4182 34.2813 20.125 34.2812Z" fill="#3e68ff" stroke="none"/>
</g>
</g>
</svg>
